G04 Layer_Color=65535*
%FSLAX25Y25*%
%MOIN*%
G70*
G01*
G75*
%ADD31C,0.01000*%
%ADD40C,0.00984*%
%ADD41C,0.00394*%
%ADD42C,0.00787*%
D31*
X392000Y222500D02*
Y231500D01*
X396364D01*
X410000Y222500D02*
Y231500D01*
X405636Y222500D02*
X410000D01*
X392000D02*
X396364D01*
X405636Y231500D02*
X410000D01*
X396364Y222500D02*
X405636D01*
X396364Y231500D02*
X405636D01*
X250000Y200000D02*
Y475000D01*
Y200000D02*
X550000D01*
Y475000D01*
X250000D02*
X550000D01*
X337125Y342409D02*
X338375D01*
X337750Y350559D02*
X340250D01*
X341500Y342500D02*
Y350500D01*
X339000Y342409D02*
X341500D01*
X338375D02*
X339000D01*
X336500D02*
X337125D01*
X340250Y350559D02*
X341500D01*
X336559D02*
X337750D01*
X336500Y350500D02*
X336559Y350559D01*
X336500Y342500D02*
Y350500D01*
X321878Y291625D02*
Y292875D01*
X330028Y289750D02*
Y292250D01*
X321969Y288500D02*
X329969D01*
X321878D02*
Y291000D01*
Y291625D01*
Y292875D02*
Y293500D01*
X330028Y288500D02*
Y289750D01*
Y292250D02*
Y293441D01*
X329969Y293500D02*
X330028Y293441D01*
X321969Y293500D02*
X329969D01*
X331909Y397125D02*
Y398375D01*
X340059Y395250D02*
Y397750D01*
X332000Y394000D02*
X340000D01*
X331909D02*
Y396500D01*
Y397125D01*
Y398375D02*
Y399000D01*
X340059Y394000D02*
Y395250D01*
Y397750D02*
Y398941D01*
X340000Y399000D02*
X340059Y398941D01*
X332000Y399000D02*
X340000D01*
X363625Y279909D02*
X364875D01*
X364250Y288059D02*
X366750D01*
X368000Y280000D02*
Y288000D01*
X365500Y279909D02*
X368000D01*
X364875D02*
X365500D01*
X363000D02*
X363625D01*
X366750Y288059D02*
X368000D01*
X363059D02*
X364250D01*
X363000Y288000D02*
X363059Y288059D01*
X363000Y280000D02*
Y288000D01*
X383125Y279909D02*
X384375D01*
X383750Y288059D02*
X386250D01*
X387500Y280000D02*
Y288000D01*
X385000Y279909D02*
X387500D01*
X384375D02*
X385000D01*
X382500D02*
X383125D01*
X386250Y288059D02*
X387500D01*
X382559D02*
X383750D01*
X382500Y288000D02*
X382559Y288059D01*
X382500Y280000D02*
Y288000D01*
X322378Y254125D02*
Y255375D01*
X330528Y252250D02*
Y254750D01*
X322469Y251000D02*
X330469D01*
X322378D02*
Y253500D01*
Y254125D01*
Y255375D02*
Y256000D01*
X330528Y251000D02*
Y252250D01*
Y254750D02*
Y255941D01*
X330469Y256000D02*
X330528Y255941D01*
X322469Y256000D02*
X330469D01*
X456941Y258125D02*
Y259375D01*
X465091Y256250D02*
Y258750D01*
X457031Y255000D02*
X465031D01*
X456941D02*
Y257500D01*
Y258125D01*
Y259375D02*
Y260000D01*
X465091Y255000D02*
Y256250D01*
Y258750D02*
Y259941D01*
X465031Y260000D02*
X465091Y259941D01*
X457031Y260000D02*
X465031D01*
X304909Y254125D02*
Y255375D01*
X313059Y252250D02*
Y254750D01*
X305000Y251000D02*
X313000D01*
X304909D02*
Y253500D01*
Y254125D01*
Y255375D02*
Y256000D01*
X313059Y251000D02*
Y252250D01*
Y254750D02*
Y255941D01*
X313000Y256000D02*
X313059Y255941D01*
X305000Y256000D02*
X313000D01*
X481378Y261625D02*
Y262875D01*
X489528Y259750D02*
Y262250D01*
X481469Y258500D02*
X489469D01*
X481378D02*
Y261000D01*
Y261625D01*
Y262875D02*
Y263500D01*
X489528Y258500D02*
Y259750D01*
Y262250D02*
Y263441D01*
X489469Y263500D02*
X489528Y263441D01*
X481469Y263500D02*
X489469D01*
X280626Y233000D02*
X283126D01*
X266126D02*
X269126D01*
X267626Y231500D02*
Y234500D01*
X285626Y228000D02*
Y238000D01*
X263500D02*
X285626D01*
X263500Y218000D02*
Y238000D01*
Y218000D02*
X285626D01*
Y228000D01*
X263500D02*
X266126D01*
X284126D02*
X285626D01*
X534500Y233000D02*
X537000D01*
X520000D02*
X523000D01*
X521500Y231500D02*
Y234500D01*
X539500Y228000D02*
Y238000D01*
X517374D02*
X539500D01*
X517374Y218000D02*
Y238000D01*
Y218000D02*
X539500D01*
Y228000D01*
X517374D02*
X520000D01*
X538000D02*
X539500D01*
X458125Y305909D02*
X459375D01*
X458750Y314059D02*
X461250D01*
X462500Y306000D02*
Y314000D01*
X460000Y305909D02*
X462500D01*
X459375D02*
X460000D01*
X457500D02*
X458125D01*
X461250Y314059D02*
X462500D01*
X457559D02*
X458750D01*
X457500Y314000D02*
X457559Y314059D01*
X457500Y306000D02*
Y314000D01*
X357909Y427625D02*
Y428875D01*
X366059Y425750D02*
Y428250D01*
X358000Y424500D02*
X366000D01*
X357909D02*
Y427000D01*
Y427625D01*
Y428875D02*
Y429500D01*
X366059Y424500D02*
Y425750D01*
Y428250D02*
Y429441D01*
X366000Y429500D02*
X366059Y429441D01*
X358000Y429500D02*
X366000D01*
X449409Y422125D02*
Y423375D01*
X457559Y420250D02*
Y422750D01*
X449500Y419000D02*
X457500D01*
X449409D02*
Y421500D01*
Y422125D01*
Y423375D02*
Y424000D01*
X457559Y419000D02*
Y420250D01*
Y422750D02*
Y423941D01*
X457500Y424000D02*
X457559Y423941D01*
X449500Y424000D02*
X457500D01*
X441500Y232000D02*
X444000D01*
X427000D02*
X430000D01*
X428500Y230500D02*
Y233500D01*
X446500Y227000D02*
Y237000D01*
X424374D02*
X446500D01*
X424374Y217000D02*
Y237000D01*
Y217000D02*
X446500D01*
Y227000D01*
X424374D02*
X427000D01*
X445000D02*
X446500D01*
X336909Y427625D02*
Y428875D01*
X345059Y425750D02*
Y428250D01*
X337000Y424500D02*
X345000D01*
X336909D02*
Y427000D01*
Y427625D01*
Y428875D02*
Y429500D01*
X345059Y424500D02*
Y425750D01*
Y428250D02*
Y429441D01*
X345000Y429500D02*
X345059Y429441D01*
X337000Y429500D02*
X345000D01*
X473409Y422125D02*
Y423375D01*
X481559Y420250D02*
Y422750D01*
X473500Y419000D02*
X481500D01*
X473409D02*
Y421500D01*
Y422125D01*
Y423375D02*
Y424000D01*
X481559Y419000D02*
Y420250D01*
Y422750D02*
Y423941D01*
X481500Y424000D02*
X481559Y423941D01*
X473500Y424000D02*
X481500D01*
X280626Y437500D02*
X283126D01*
X266126D02*
X269126D01*
X267626Y436000D02*
Y439000D01*
X285626Y432500D02*
Y442500D01*
X263500D02*
X285626D01*
X263500Y422500D02*
Y442500D01*
Y422500D02*
X285626D01*
Y432500D01*
X263500D02*
X266126D01*
X284126D02*
X285626D01*
X534500Y440000D02*
X537000D01*
X520000D02*
X523000D01*
X521500Y438500D02*
Y441500D01*
X539500Y435000D02*
Y445000D01*
X517374D02*
X539500D01*
X517374Y425000D02*
Y445000D01*
Y425000D02*
X539500D01*
Y435000D01*
X517374D02*
X520000D01*
X538000D02*
X539500D01*
X353100Y349399D02*
Y345400D01*
X355099D01*
X355766Y346066D01*
Y346733D01*
X355099Y347399D01*
X353100D01*
X355099D01*
X355766Y348066D01*
Y348732D01*
X355099Y349399D01*
X353100D01*
X357099Y345400D02*
X358432D01*
X357765D01*
Y349399D01*
X357099Y348732D01*
X424900Y244499D02*
Y240500D01*
X426899D01*
X427566Y241166D01*
Y241833D01*
X426899Y242499D01*
X424900D01*
X426899D01*
X427566Y243166D01*
Y243832D01*
X426899Y244499D01*
X424900D01*
X429565Y243166D02*
X430898D01*
X431565Y242499D01*
Y240500D01*
X429565D01*
X428899Y241166D01*
X429565Y241833D01*
X431565D01*
X433564Y243832D02*
Y243166D01*
X432897D01*
X434230D01*
X433564D01*
Y241166D01*
X434230Y240500D01*
X436896Y243832D02*
Y243166D01*
X436230D01*
X437563D01*
X436896D01*
Y241166D01*
X437563Y240500D01*
X370666Y246832D02*
X369999Y247499D01*
X368666D01*
X368000Y246832D01*
Y244166D01*
X368666Y243500D01*
X369999D01*
X370666Y244166D01*
X371999Y243500D02*
X373332D01*
X372665D01*
Y247499D01*
X371999Y246832D01*
X325866Y279432D02*
X325199Y280099D01*
X323866D01*
X323200Y279432D01*
Y276766D01*
X323866Y276100D01*
X325199D01*
X325866Y276766D01*
X329865Y276100D02*
X327199D01*
X329865Y278766D01*
Y279432D01*
X329198Y280099D01*
X327865D01*
X327199Y279432D01*
X355666Y262132D02*
X354999Y262799D01*
X353666D01*
X353000Y262132D01*
Y259466D01*
X353666Y258800D01*
X354999D01*
X355666Y259466D01*
X356999Y262132D02*
X357665Y262799D01*
X358998D01*
X359665Y262132D01*
Y261466D01*
X358998Y260799D01*
X358332D01*
X358998D01*
X359665Y260133D01*
Y259466D01*
X358998Y258800D01*
X357665D01*
X356999Y259466D01*
X432266Y407432D02*
X431599Y408099D01*
X430266D01*
X429600Y407432D01*
Y404766D01*
X430266Y404100D01*
X431599D01*
X432266Y404766D01*
X435598Y404100D02*
Y408099D01*
X433599Y406099D01*
X436265D01*
X301766Y323432D02*
X301099Y324099D01*
X299766D01*
X299100Y323432D01*
Y320766D01*
X299766Y320100D01*
X301099D01*
X301766Y320766D01*
X305765Y324099D02*
X303099D01*
Y322099D01*
X304432Y322766D01*
X305098D01*
X305765Y322099D01*
Y320766D01*
X305098Y320100D01*
X303765D01*
X303099Y320766D01*
X407766Y292932D02*
X407099Y293599D01*
X405766D01*
X405100Y292932D01*
Y290266D01*
X405766Y289600D01*
X407099D01*
X407766Y290266D01*
X411764Y293599D02*
X410432Y292932D01*
X409099Y291599D01*
Y290266D01*
X409765Y289600D01*
X411098D01*
X411764Y290266D01*
Y290933D01*
X411098Y291599D01*
X409099D01*
X432266Y391932D02*
X431599Y392599D01*
X430266D01*
X429600Y391932D01*
Y389266D01*
X430266Y388600D01*
X431599D01*
X432266Y389266D01*
X433599Y392599D02*
X436265D01*
Y391932D01*
X433599Y389266D01*
Y388600D01*
X432766Y423432D02*
X432099Y424099D01*
X430766D01*
X430100Y423432D01*
Y420766D01*
X430766Y420100D01*
X432099D01*
X432766Y420766D01*
X434099Y423432D02*
X434765Y424099D01*
X436098D01*
X436764Y423432D01*
Y422766D01*
X436098Y422099D01*
X436764Y421433D01*
Y420766D01*
X436098Y420100D01*
X434765D01*
X434099Y420766D01*
Y421433D01*
X434765Y422099D01*
X434099Y422766D01*
Y423432D01*
X434765Y422099D02*
X436098D01*
X376266Y422432D02*
X375599Y423099D01*
X374266D01*
X373600Y422432D01*
Y419766D01*
X374266Y419100D01*
X375599D01*
X376266Y419766D01*
X377599D02*
X378265Y419100D01*
X379598D01*
X380264Y419766D01*
Y422432D01*
X379598Y423099D01*
X378265D01*
X377599Y422432D01*
Y421766D01*
X378265Y421099D01*
X380264D01*
X376566Y338232D02*
X375899Y338899D01*
X374566D01*
X373900Y338232D01*
Y335566D01*
X374566Y334900D01*
X375899D01*
X376566Y335566D01*
X377899Y334900D02*
X379232D01*
X378565D01*
Y338899D01*
X377899Y338232D01*
X381231D02*
X381897Y338899D01*
X383230D01*
X383897Y338232D01*
Y335566D01*
X383230Y334900D01*
X381897D01*
X381231Y335566D01*
Y338232D01*
X356266Y321932D02*
X355599Y322599D01*
X354266D01*
X353600Y321932D01*
Y319266D01*
X354266Y318600D01*
X355599D01*
X356266Y319266D01*
X357599Y318600D02*
X358932D01*
X358265D01*
Y322599D01*
X357599Y321932D01*
X360931Y318600D02*
X362264D01*
X361597D01*
Y322599D01*
X360931Y321932D01*
X355566Y380232D02*
X354899Y380899D01*
X353566D01*
X352900Y380232D01*
Y377566D01*
X353566Y376900D01*
X354899D01*
X355566Y377566D01*
X356899Y376900D02*
X358232D01*
X357565D01*
Y380899D01*
X356899Y380232D01*
X362897Y376900D02*
X360231D01*
X362897Y379566D01*
Y380232D01*
X362230Y380899D01*
X360897D01*
X360231Y380232D01*
X272066Y341232D02*
X271399Y341899D01*
X270066D01*
X269400Y341232D01*
Y338566D01*
X270066Y337900D01*
X271399D01*
X272066Y338566D01*
X273399Y337900D02*
X274732D01*
X274065D01*
Y341899D01*
X273399Y341232D01*
X276731D02*
X277397Y341899D01*
X278730D01*
X279397Y341232D01*
Y340566D01*
X278730Y339899D01*
X278064D01*
X278730D01*
X279397Y339233D01*
Y338566D01*
X278730Y337900D01*
X277397D01*
X276731Y338566D01*
X323566Y366632D02*
X322899Y367299D01*
X321566D01*
X320900Y366632D01*
Y363966D01*
X321566Y363300D01*
X322899D01*
X323566Y363966D01*
X324899Y363300D02*
X326232D01*
X325565D01*
Y367299D01*
X324899Y366632D01*
X330230Y363300D02*
Y367299D01*
X328231Y365299D01*
X330897D01*
X425066Y436132D02*
X424399Y436799D01*
X423066D01*
X422400Y436132D01*
Y433466D01*
X423066Y432800D01*
X424399D01*
X425066Y433466D01*
X426399Y432800D02*
X427732D01*
X427065D01*
Y436799D01*
X426399Y436132D01*
X432397Y436799D02*
X429731D01*
Y434799D01*
X431064Y435466D01*
X431730D01*
X432397Y434799D01*
Y433466D01*
X431730Y432800D01*
X430397D01*
X429731Y433466D01*
X433566Y342732D02*
X432899Y343399D01*
X431566D01*
X430900Y342732D01*
Y340066D01*
X431566Y339400D01*
X432899D01*
X433566Y340066D01*
X434899Y339400D02*
X436232D01*
X435565D01*
Y343399D01*
X434899Y342732D01*
X440897Y343399D02*
X439564Y342732D01*
X438231Y341399D01*
Y340066D01*
X438897Y339400D01*
X440230D01*
X440897Y340066D01*
Y340733D01*
X440230Y341399D01*
X438231D01*
X434066Y284732D02*
X433399Y285399D01*
X432066D01*
X431400Y284732D01*
Y282066D01*
X432066Y281400D01*
X433399D01*
X434066Y282066D01*
X435399Y281400D02*
X436732D01*
X436065D01*
Y285399D01*
X435399Y284732D01*
X438731Y285399D02*
X441397D01*
Y284732D01*
X438731Y282066D01*
Y281400D01*
X434066Y313232D02*
X433399Y313899D01*
X432066D01*
X431400Y313232D01*
Y310566D01*
X432066Y309900D01*
X433399D01*
X434066Y310566D01*
X435399Y309900D02*
X436732D01*
X436065D01*
Y313899D01*
X435399Y313232D01*
X438731D02*
X439397Y313899D01*
X440730D01*
X441397Y313232D01*
Y312566D01*
X440730Y311899D01*
X441397Y311233D01*
Y310566D01*
X440730Y309900D01*
X439397D01*
X438731Y310566D01*
Y311233D01*
X439397Y311899D01*
X438731Y312566D01*
Y313232D01*
X439397Y311899D02*
X440730D01*
X460066Y293732D02*
X459399Y294399D01*
X458066D01*
X457400Y293732D01*
Y291066D01*
X458066Y290400D01*
X459399D01*
X460066Y291066D01*
X461399Y290400D02*
X462732D01*
X462065D01*
Y294399D01*
X461399Y293732D01*
X464731Y291066D02*
X465397Y290400D01*
X466730D01*
X467397Y291066D01*
Y293732D01*
X466730Y294399D01*
X465397D01*
X464731Y293732D01*
Y293066D01*
X465397Y292399D01*
X467397D01*
X291800Y300199D02*
Y296200D01*
X293799D01*
X294466Y296866D01*
Y299532D01*
X293799Y300199D01*
X291800D01*
X295799Y296200D02*
X297132D01*
X296465D01*
Y300199D01*
X295799Y299532D01*
X511800Y393199D02*
Y389200D01*
X513799D01*
X514466Y389866D01*
Y392532D01*
X513799Y393199D01*
X511800D01*
X518465Y389200D02*
X515799D01*
X518465Y391866D01*
Y392532D01*
X517798Y393199D01*
X516465D01*
X515799Y392532D01*
X511800Y306699D02*
Y302700D01*
X513799D01*
X514466Y303366D01*
Y306032D01*
X513799Y306699D01*
X511800D01*
X515799Y306032D02*
X516465Y306699D01*
X517798D01*
X518465Y306032D01*
Y305366D01*
X517798Y304699D01*
X517132D01*
X517798D01*
X518465Y304033D01*
Y303366D01*
X517798Y302700D01*
X516465D01*
X515799Y303366D01*
X300800Y239699D02*
Y235700D01*
X302799D01*
X303466Y236366D01*
Y239032D01*
X302799Y239699D01*
X300800D01*
X306798Y235700D02*
Y239699D01*
X304799Y237699D01*
X307465D01*
X336100Y242299D02*
X337433D01*
X336766D01*
Y238300D01*
X336100D01*
X337433D01*
X342098Y241632D02*
X341432Y242299D01*
X340099D01*
X339432Y241632D01*
Y238966D01*
X340099Y238300D01*
X341432D01*
X342098Y238966D01*
X343431Y238300D02*
X344764D01*
X344097D01*
Y242299D01*
X343431Y241632D01*
X458366Y399399D02*
X457033D01*
X457699D01*
Y396066D01*
X457033Y395400D01*
X456366D01*
X455700Y396066D01*
X459699Y395400D02*
Y399399D01*
X461698D01*
X462364Y398732D01*
Y397399D01*
X461698Y396733D01*
X459699D01*
X463697Y395400D02*
X465030D01*
X464364D01*
Y399399D01*
X463697Y398732D01*
X320600Y324199D02*
Y320200D01*
X323266D01*
X327264Y324199D02*
X324599D01*
Y320200D01*
X327264D01*
X324599Y322199D02*
X325932D01*
X328597Y324199D02*
Y320200D01*
X330597D01*
X331263Y320866D01*
Y323532D01*
X330597Y324199D01*
X328597D01*
X332596Y320200D02*
X333929D01*
X333263D01*
Y324199D01*
X332596Y323532D01*
X335928Y320200D02*
Y322866D01*
X337261Y324199D01*
X338594Y322866D01*
Y320200D01*
Y322199D01*
X335928D01*
X351600Y407199D02*
Y403200D01*
X354266D01*
X358264Y407199D02*
X355599D01*
Y403200D01*
X358264D01*
X355599Y405199D02*
X356932D01*
X359597Y407199D02*
Y403200D01*
X361597D01*
X362263Y403866D01*
Y406532D01*
X361597Y407199D01*
X359597D01*
X363596Y403200D02*
X364929D01*
X364263D01*
Y407199D01*
X363596Y406532D01*
X366928Y407199D02*
Y403200D01*
X368928D01*
X369594Y403866D01*
Y404533D01*
X368928Y405199D01*
X366928D01*
X368928D01*
X369594Y405866D01*
Y406532D01*
X368928Y407199D01*
X366928D01*
X264000Y446000D02*
Y449999D01*
X265333Y448666D01*
X266666Y449999D01*
Y446000D01*
X267999D02*
X269332D01*
X268665D01*
Y449999D01*
X267999Y449332D01*
X517900Y448500D02*
Y452499D01*
X519233Y451166D01*
X520566Y452499D01*
Y448500D01*
X524565D02*
X521899D01*
X524565Y451166D01*
Y451832D01*
X523898Y452499D01*
X522565D01*
X521899Y451832D01*
X264000Y241500D02*
Y245499D01*
X265333Y244166D01*
X266666Y245499D01*
Y241500D01*
X269998D02*
Y245499D01*
X267999Y243499D01*
X270665D01*
X517900Y241500D02*
Y245499D01*
X519233Y244166D01*
X520566Y245499D01*
Y241500D01*
X521899Y244832D02*
X522565Y245499D01*
X523898D01*
X524565Y244832D01*
Y244166D01*
X523898Y243499D01*
X523232D01*
X523898D01*
X524565Y242833D01*
Y242166D01*
X523898Y241500D01*
X522565D01*
X521899Y242166D01*
X397766Y437966D02*
Y440632D01*
X397099Y441299D01*
X395766D01*
X395100Y440632D01*
Y437966D01*
X395766Y437300D01*
X397099D01*
X396433Y438633D02*
X397766Y437300D01*
X397099D02*
X397766Y437966D01*
X399099Y437300D02*
X400432D01*
X399765D01*
Y441299D01*
X399099Y440632D01*
X494966Y339766D02*
Y342432D01*
X494299Y343099D01*
X492966D01*
X492300Y342432D01*
Y339766D01*
X492966Y339100D01*
X494299D01*
X493633Y340433D02*
X494966Y339100D01*
X494299D02*
X494966Y339766D01*
X498965Y339100D02*
X496299D01*
X498965Y341766D01*
Y342432D01*
X498298Y343099D01*
X496965D01*
X496299Y342432D01*
X284966Y269266D02*
Y271932D01*
X284299Y272599D01*
X282966D01*
X282300Y271932D01*
Y269266D01*
X282966Y268600D01*
X284299D01*
X283633Y269933D02*
X284966Y268600D01*
X284299D02*
X284966Y269266D01*
X286299Y271932D02*
X286965Y272599D01*
X288298D01*
X288965Y271932D01*
Y271266D01*
X288298Y270599D01*
X287632D01*
X288298D01*
X288965Y269933D01*
Y269266D01*
X288298Y268600D01*
X286965D01*
X286299Y269266D01*
X494266Y436766D02*
Y439432D01*
X493599Y440099D01*
X492266D01*
X491600Y439432D01*
Y436766D01*
X492266Y436100D01*
X493599D01*
X492933Y437433D02*
X494266Y436100D01*
X493599D02*
X494266Y436766D01*
X497598Y436100D02*
Y440099D01*
X495599Y438099D01*
X498265D01*
X309466Y435766D02*
Y438432D01*
X308799Y439099D01*
X307466D01*
X306800Y438432D01*
Y435766D01*
X307466Y435100D01*
X308799D01*
X308133Y436433D02*
X309466Y435100D01*
X308799D02*
X309466Y435766D01*
X313464Y439099D02*
X310799D01*
Y437099D01*
X312132Y437766D01*
X312798D01*
X313464Y437099D01*
Y435766D01*
X312798Y435100D01*
X311465D01*
X310799Y435766D01*
X358368Y433000D02*
Y436999D01*
X360368D01*
X361034Y436332D01*
Y434999D01*
X360368Y434333D01*
X358368D01*
X359701D02*
X361034Y433000D01*
X362367D02*
X363700D01*
X363034D01*
Y436999D01*
X362367Y436332D01*
X337432Y433000D02*
Y436999D01*
X339431D01*
X340097Y436332D01*
Y434999D01*
X339431Y434333D01*
X337432D01*
X338764D02*
X340097Y433000D01*
X344096D02*
X341430D01*
X344096Y435666D01*
Y436332D01*
X343430Y436999D01*
X342097D01*
X341430Y436332D01*
X449900Y427500D02*
Y431499D01*
X451899D01*
X452566Y430832D01*
Y429499D01*
X451899Y428833D01*
X449900D01*
X451233D02*
X452566Y427500D01*
X453899Y430832D02*
X454565Y431499D01*
X455898D01*
X456565Y430832D01*
Y430166D01*
X455898Y429499D01*
X455232D01*
X455898D01*
X456565Y428833D01*
Y428166D01*
X455898Y427500D01*
X454565D01*
X453899Y428166D01*
X473900Y427500D02*
Y431499D01*
X475899D01*
X476566Y430832D01*
Y429499D01*
X475899Y428833D01*
X473900D01*
X475233D02*
X476566Y427500D01*
X479898D02*
Y431499D01*
X477899Y429499D01*
X480564D01*
X457400Y263500D02*
Y267499D01*
X459399D01*
X460066Y266832D01*
Y265499D01*
X459399Y264833D01*
X457400D01*
X458733D02*
X460066Y263500D01*
X464065Y267499D02*
X461399D01*
Y265499D01*
X462732Y266166D01*
X463398D01*
X464065Y265499D01*
Y264166D01*
X463398Y263500D01*
X462065D01*
X461399Y264166D01*
X481900Y267000D02*
Y270999D01*
X483899D01*
X484566Y270332D01*
Y268999D01*
X483899Y268333D01*
X481900D01*
X483233D02*
X484566Y267000D01*
X488564Y270999D02*
X487232Y270332D01*
X485899Y268999D01*
Y267666D01*
X486565Y267000D01*
X487898D01*
X488564Y267666D01*
Y268333D01*
X487898Y268999D01*
X485899D01*
X322900Y259500D02*
Y263499D01*
X324899D01*
X325566Y262832D01*
Y261499D01*
X324899Y260833D01*
X322900D01*
X324233D02*
X325566Y259500D01*
X326899Y263499D02*
X329564D01*
Y262832D01*
X326899Y260166D01*
Y259500D01*
X305400D02*
Y263499D01*
X307399D01*
X308066Y262832D01*
Y261499D01*
X307399Y260833D01*
X305400D01*
X306733D02*
X308066Y259500D01*
X309399Y262832D02*
X310065Y263499D01*
X311398D01*
X312065Y262832D01*
Y262166D01*
X311398Y261499D01*
X312065Y260833D01*
Y260166D01*
X311398Y259500D01*
X310065D01*
X309399Y260166D01*
Y260833D01*
X310065Y261499D01*
X309399Y262166D01*
Y262832D01*
X310065Y261499D02*
X311398D01*
X322400Y297000D02*
Y300999D01*
X324399D01*
X325066Y300332D01*
Y298999D01*
X324399Y298333D01*
X322400D01*
X323733D02*
X325066Y297000D01*
X326399Y297666D02*
X327065Y297000D01*
X328398D01*
X329064Y297666D01*
Y300332D01*
X328398Y300999D01*
X327065D01*
X326399Y300332D01*
Y299666D01*
X327065Y298999D01*
X329064D01*
X337000Y354100D02*
Y358099D01*
X338999D01*
X339666Y357432D01*
Y356099D01*
X338999Y355433D01*
X337000D01*
X338333D02*
X339666Y354100D01*
X340999D02*
X342332D01*
X341665D01*
Y358099D01*
X340999Y357432D01*
X344331D02*
X344997Y358099D01*
X346330D01*
X346997Y357432D01*
Y354766D01*
X346330Y354100D01*
X344997D01*
X344331Y354766D01*
Y357432D01*
X332400Y402500D02*
Y406499D01*
X334399D01*
X335066Y405832D01*
Y404499D01*
X334399Y403833D01*
X332400D01*
X333733D02*
X335066Y402500D01*
X336399D02*
X337732D01*
X337065D01*
Y406499D01*
X336399Y405832D01*
X339731Y402500D02*
X341064D01*
X340397D01*
Y406499D01*
X339731Y405832D01*
X383000Y291600D02*
Y295599D01*
X384999D01*
X385666Y294932D01*
Y293599D01*
X384999Y292933D01*
X383000D01*
X384333D02*
X385666Y291600D01*
X386999D02*
X388332D01*
X387665D01*
Y295599D01*
X386999Y294932D01*
X392997Y291600D02*
X390331D01*
X392997Y294266D01*
Y294932D01*
X392330Y295599D01*
X390997D01*
X390331Y294932D01*
X363500Y291600D02*
Y295599D01*
X365499D01*
X366166Y294932D01*
Y293599D01*
X365499Y292933D01*
X363500D01*
X364833D02*
X366166Y291600D01*
X367499D02*
X368832D01*
X368165D01*
Y295599D01*
X367499Y294932D01*
X370831D02*
X371497Y295599D01*
X372830D01*
X373497Y294932D01*
Y294266D01*
X372830Y293599D01*
X372164D01*
X372830D01*
X373497Y292933D01*
Y292266D01*
X372830Y291600D01*
X371497D01*
X370831Y292266D01*
X458000Y317600D02*
Y321599D01*
X459999D01*
X460666Y320932D01*
Y319599D01*
X459999Y318933D01*
X458000D01*
X459333D02*
X460666Y317600D01*
X461999D02*
X463332D01*
X462665D01*
Y321599D01*
X461999Y320932D01*
X467330Y317600D02*
Y321599D01*
X465331Y319599D01*
X467997D01*
X396166Y238332D02*
X395499Y238999D01*
X394166D01*
X393500Y238332D01*
Y237666D01*
X394166Y236999D01*
X395499D01*
X396166Y236333D01*
Y235666D01*
X395499Y235000D01*
X394166D01*
X393500Y235666D01*
X397499Y238999D02*
Y235000D01*
X398832Y236333D01*
X400165Y235000D01*
Y238999D01*
X372600Y399099D02*
Y395766D01*
X373266Y395100D01*
X374599D01*
X375266Y395766D01*
Y399099D01*
X376599Y395100D02*
X377932D01*
X377265D01*
Y399099D01*
X376599Y398432D01*
X396400Y333699D02*
Y330366D01*
X397066Y329700D01*
X398399D01*
X399066Y330366D01*
Y333699D01*
X403064Y329700D02*
X400399D01*
X403064Y332366D01*
Y333032D01*
X402398Y333699D01*
X401065D01*
X400399Y333032D01*
X266700Y314799D02*
Y314132D01*
X268033Y312799D01*
X269366Y314132D01*
Y314799D01*
X268033Y312799D02*
Y310800D01*
X270699D02*
X272032D01*
X271365D01*
Y314799D01*
X270699Y314132D01*
D40*
X396862Y324980D02*
G03*
X396862Y324980I-492J0D01*
G01*
X354492Y341453D02*
G03*
X354492Y341453I-492J0D01*
G01*
X373126Y389717D02*
G03*
X373126Y389717I-492J0D01*
G01*
X284768Y264587D02*
G03*
X284768Y264587I-492J0D01*
G01*
X494768Y335087D02*
G03*
X494768Y335087I-492J0D01*
G01*
X338772Y234347D02*
G03*
X338772Y234347I-492J0D01*
G01*
X309268Y431087D02*
G03*
X309268Y431087I-492J0D01*
G01*
X494043Y432087D02*
G03*
X494043Y432087I-492J0D01*
G01*
D41*
X351153Y396319D02*
G03*
X351153Y396319I-197J0D01*
G01*
X320153Y313319D02*
G03*
X320153Y313319I-197J0D01*
G01*
X395354Y433874D02*
G03*
X395354Y433874I-197J0D01*
G01*
X301028Y231256D02*
G03*
X301028Y231256I-197J0D01*
G01*
X512028Y298256D02*
G03*
X512028Y298256I-197J0D01*
G01*
X292028Y291756D02*
G03*
X292028Y291756I-197J0D01*
G01*
X512028Y384756D02*
G03*
X512028Y384756I-197J0D01*
G01*
D42*
X398929Y309429D02*
X399815D01*
X398929D02*
Y310315D01*
X414185Y309429D02*
X415071D01*
Y310315D01*
Y324685D02*
Y325571D01*
X414185D02*
X415071D01*
X398929D02*
X399815D01*
X398929Y324685D02*
Y325571D01*
X267169Y283142D02*
Y300858D01*
X275831Y283142D02*
Y300858D01*
X375193Y388831D02*
Y390307D01*
X376669D01*
X410331D02*
X411807D01*
Y388831D02*
Y390307D01*
Y353693D02*
Y355169D01*
X410331Y353693D02*
X411807D01*
X375193D02*
Y355169D01*
Y353693D02*
X376669D01*
X291756Y251594D02*
Y254744D01*
X287819Y251594D02*
X291756D01*
Y260256D02*
Y263406D01*
X287819D02*
X291756D01*
X501756Y322094D02*
Y325244D01*
X497819Y322094D02*
X501756D01*
Y330756D02*
Y333906D01*
X497819D02*
X501756D01*
X314709Y224957D02*
Y225744D01*
X303291Y224957D02*
Y225744D01*
X314709Y231256D02*
Y232043D01*
X303291Y231256D02*
Y232043D01*
Y224957D02*
X314709D01*
X303291Y232043D02*
X314709D01*
X525709Y291957D02*
Y292744D01*
X514291Y291957D02*
Y292744D01*
X525709Y298256D02*
Y299043D01*
X514291Y298256D02*
Y299043D01*
Y291957D02*
X525709D01*
X514291Y299043D02*
X525709D01*
X375543Y229909D02*
Y231091D01*
X368457Y229909D02*
Y231091D01*
X468209Y392000D02*
X475000D01*
X481791D01*
Y342000D02*
Y392000D01*
X468209Y342000D02*
X481791D01*
X468209D02*
Y392000D01*
X345858Y221157D02*
Y233362D01*
X341921Y221157D02*
Y233362D01*
Y221157D02*
X345858D01*
X341921Y233362D02*
X345858D01*
X316256Y418094D02*
Y421244D01*
X312319Y418094D02*
X316256D01*
Y426756D02*
Y429906D01*
X312319D02*
X316256D01*
X501031Y419094D02*
Y422244D01*
X497094Y419094D02*
X501031D01*
Y427756D02*
Y430906D01*
X497094D02*
X501031D01*
X305709Y285457D02*
Y286244D01*
X294291Y285457D02*
Y286244D01*
X305709Y291756D02*
Y292543D01*
X294291Y291756D02*
Y292543D01*
Y285457D02*
X305709D01*
X294291Y292543D02*
X305709D01*
X525709Y378457D02*
Y379244D01*
X514291Y378457D02*
Y379244D01*
X525709Y384756D02*
Y385543D01*
X514291Y384756D02*
Y385543D01*
Y378457D02*
X525709D01*
X514291Y385543D02*
X525709D01*
M02*
