M48
;Layer_Color=9474304
;FILE_FORMAT=2:5
INCH,LZ
;TYPE=PLATED
T1F00S00C0.00787
T2F00S00C0.01500
T3F00S00C0.01600
T4F00S00C0.02500
T5F00S00C0.02756
T6F00S00C0.03937
%
T01
X0404835Y0315335
X0409165
Y0319665
X0404835
X0399996Y0363339
Y0367669
X0395665
Y0363339
X0391335
Y0367669
X0387004
Y0363339
Y0372
X0391335
Y0376331
Y0380661
X0387004
Y0376331
X0395665
Y0380661
X0399996
Y0376331
Y0372
X0395665
T02
X0398Y03585
T03
X051Y0287
X04597Y03052
X04401Y03008
X0407984
X04107Y0304
X04052
X03927Y0301
X03954Y03104
X04009Y02835
X0379432Y0282032
X03625Y02828
X04232Y0276
X02895Y02385
X02786Y03255
X02715Y03459
X0311Y0331
X03607Y033
X03529Y03459
X03449Y03908
X03345Y0392
X03212Y0391
Y03858
X03696Y03935
X03801Y03832
X03918Y03962
X04253Y03738
Y03655
X0447479Y0357
X04326Y03399
X0409953Y03318
X03987Y03325
X0383865Y0453665
T04
X05245Y0228
X0532374
X0439374Y0227
X04315
X02785Y0228
X0270626
Y04325
X02785
X05245Y0435
X0532374
T05
X0396Y0227
X0406
T06
X046Y0347
Y0357
Y0367
Y0377
Y0387
X049
Y0377
Y0367
Y0357
Y0347
M30
