G04 Layer_Physical_Order=1*
G04 Layer_Color=255*
%FSLAX25Y25*%
%MOIN*%
G70*
G01*
G75*
%ADD10R,0.03800X0.04000*%
%ADD11R,0.10630X0.10236*%
%ADD12R,0.01378X0.01969*%
%ADD13R,0.01969X0.01378*%
%ADD14R,0.02362X0.01969*%
%ADD15R,0.03347X0.01575*%
%ADD16R,0.01969X0.02362*%
%ADD17R,0.02756X0.01969*%
%ADD18R,0.02559X0.01575*%
%ADD19R,0.04528X0.03740*%
%ADD20R,0.04000X0.03800*%
%ADD21R,0.09449X0.04331*%
%ADD22O,0.03347X0.00984*%
%ADD23O,0.00984X0.03347*%
%ADD24R,0.18701X0.22244*%
%ADD25R,0.03937X0.02362*%
%ADD26R,0.01969X0.02756*%
%ADD27R,0.02500X0.02835*%
%ADD28R,0.06299X0.03150*%
%ADD29R,0.07874X0.05512*%
%ADD30R,0.04134X0.02362*%
%ADD31C,0.01000*%
%ADD32C,0.04157*%
%ADD33C,0.05000*%
%ADD34R,0.09843X0.05118*%
%ADD35O,0.09843X0.05118*%
%ADD36C,0.03000*%
%ADD37C,0.01969*%
%ADD38C,0.02600*%
%ADD39C,0.02500*%
G36*
X549500Y200500D02*
X549000Y200000D01*
X250000D01*
Y474500D01*
X250500Y475000D01*
X549500D01*
Y200500D01*
D02*
G37*
%LPC*%
G36*
X492362Y360590D02*
X487638D01*
X486709Y360467D01*
X485843Y360109D01*
X485099Y359538D01*
X484529Y358795D01*
X484170Y357929D01*
X484048Y357000D01*
X484170Y356071D01*
X484529Y355205D01*
X485099Y354462D01*
X485843Y353891D01*
X486709Y353533D01*
X487638Y353410D01*
X492362D01*
X493291Y353533D01*
X494157Y353891D01*
X494901Y354462D01*
X495471Y355205D01*
X495830Y356071D01*
X495952Y357000D01*
X495830Y357929D01*
X495471Y358795D01*
X494901Y359538D01*
X494157Y360109D01*
X493291Y360467D01*
X492362Y360590D01*
D02*
G37*
G36*
X462362D02*
X457638D01*
X456709Y360467D01*
X455843Y360109D01*
X455099Y359538D01*
X454529Y358795D01*
X454170Y357929D01*
X454048Y357000D01*
X454170Y356071D01*
X454529Y355205D01*
X455099Y354462D01*
X455843Y353891D01*
X456709Y353533D01*
X457638Y353410D01*
X462362D01*
X463291Y353533D01*
X464157Y353891D01*
X464901Y354462D01*
X465471Y355205D01*
X465830Y356071D01*
X465952Y357000D01*
X465830Y357929D01*
X465471Y358795D01*
X464901Y359538D01*
X464157Y360109D01*
X463291Y360467D01*
X462362Y360590D01*
D02*
G37*
G36*
Y370590D02*
X457638D01*
X456709Y370467D01*
X455843Y370109D01*
X455099Y369538D01*
X454529Y368795D01*
X454170Y367929D01*
X454048Y367000D01*
X454170Y366071D01*
X454529Y365205D01*
X455099Y364462D01*
X455843Y363891D01*
X456709Y363533D01*
X457638Y363410D01*
X462362D01*
X463291Y363533D01*
X464157Y363891D01*
X464901Y364462D01*
X465471Y365205D01*
X465830Y366071D01*
X465952Y367000D01*
X465830Y367929D01*
X465471Y368795D01*
X464901Y369538D01*
X464157Y370109D01*
X463291Y370467D01*
X462362Y370590D01*
D02*
G37*
G36*
X492362Y380590D02*
X487638D01*
X486709Y380467D01*
X485843Y380109D01*
X485099Y379538D01*
X484529Y378795D01*
X484170Y377929D01*
X484048Y377000D01*
X484170Y376071D01*
X484529Y375205D01*
X485099Y374462D01*
X485843Y373891D01*
X486709Y373533D01*
X487638Y373410D01*
X492362D01*
X493291Y373533D01*
X494157Y373891D01*
X494901Y374462D01*
X495471Y375205D01*
X495830Y376071D01*
X495952Y377000D01*
X495830Y377929D01*
X495471Y378795D01*
X494901Y379538D01*
X494157Y380109D01*
X493291Y380467D01*
X492362Y380590D01*
D02*
G37*
G36*
Y370590D02*
X487638D01*
X486709Y370467D01*
X485843Y370109D01*
X485099Y369538D01*
X484529Y368795D01*
X484170Y367929D01*
X484048Y367000D01*
X484170Y366071D01*
X484529Y365205D01*
X485099Y364462D01*
X485843Y363891D01*
X486709Y363533D01*
X487638Y363410D01*
X492362D01*
X493291Y363533D01*
X494157Y363891D01*
X494901Y364462D01*
X495471Y365205D01*
X495830Y366071D01*
X495952Y367000D01*
X495830Y367929D01*
X495471Y368795D01*
X494901Y369538D01*
X494157Y370109D01*
X493291Y370467D01*
X492362Y370590D01*
D02*
G37*
G36*
X277224Y307764D02*
X265776D01*
Y301433D01*
X277224D01*
Y307764D01*
D02*
G37*
G36*
X458663Y257100D02*
X457079D01*
Y255319D01*
X458663D01*
Y257100D01*
D02*
G37*
G36*
X271500Y348449D02*
X270525Y348255D01*
X269698Y347702D01*
X269145Y346876D01*
X268951Y345900D01*
X269145Y344924D01*
X269698Y344098D01*
X269971Y343915D01*
Y335500D01*
X268600D01*
Y329500D01*
X274400D01*
Y330871D01*
X277766D01*
X279864Y328774D01*
X279316Y327906D01*
X278600Y328049D01*
X277625Y327855D01*
X276798Y327302D01*
X276615Y327029D01*
X274400D01*
Y328500D01*
X268600D01*
Y322500D01*
X274400D01*
Y323971D01*
X276615D01*
X276798Y323698D01*
X277625Y323145D01*
X278600Y322951D01*
X279575Y323145D01*
X280402Y323698D01*
X280955Y324524D01*
X281116Y325334D01*
X281665Y325743D01*
X282082Y325938D01*
X282271Y325832D01*
Y292335D01*
X272502Y282567D01*
X265776D01*
Y276236D01*
X277224D01*
Y282567D01*
X277224D01*
X277108Y282847D01*
X284881Y290620D01*
X285213Y291116D01*
X285329Y291702D01*
Y327000D01*
X285213Y327585D01*
X284881Y328081D01*
X279481Y333481D01*
X278985Y333813D01*
X278400Y333929D01*
X274400D01*
Y335500D01*
X273029D01*
Y343915D01*
X273302Y344098D01*
X273855Y344924D01*
X274049Y345900D01*
X273855Y346876D01*
X273302Y347702D01*
X272476Y348255D01*
X271500Y348449D01*
D02*
G37*
G36*
X492362Y350590D02*
X487638D01*
X486709Y350467D01*
X485843Y350109D01*
X485099Y349538D01*
X484529Y348795D01*
X484170Y347929D01*
X484048Y347000D01*
X484170Y346071D01*
X484529Y345205D01*
X485099Y344462D01*
X485843Y343891D01*
X486709Y343533D01*
X487638Y343410D01*
X492362D01*
X493291Y343533D01*
X494157Y343891D01*
X494901Y344462D01*
X495471Y345205D01*
X495830Y346071D01*
X495952Y347000D01*
X495830Y347929D01*
X495471Y348795D01*
X494901Y349538D01*
X494157Y350109D01*
X493291Y350467D01*
X492362Y350590D01*
D02*
G37*
G36*
X462362D02*
X457638D01*
X456709Y350467D01*
X455843Y350109D01*
X455099Y349538D01*
X454529Y348795D01*
X454170Y347929D01*
X454048Y347000D01*
X454170Y346071D01*
X454529Y345205D01*
X455099Y344462D01*
X455843Y343891D01*
X456709Y343533D01*
X457638Y343410D01*
X462362D01*
X463291Y343533D01*
X464157Y343891D01*
X464901Y344462D01*
X465471Y345205D01*
X465830Y346071D01*
X465952Y347000D01*
X465830Y347929D01*
X465471Y348795D01*
X464901Y349538D01*
X464157Y350109D01*
X463291Y350467D01*
X462362Y350590D01*
D02*
G37*
G36*
X502600Y424600D02*
X500032D01*
Y422819D01*
X502600D01*
Y424600D01*
D02*
G37*
G36*
X383865Y456214D02*
X382890Y456020D01*
X382063Y455468D01*
X381510Y454641D01*
X381316Y453665D01*
X381510Y452690D01*
X382063Y451863D01*
X382890Y451310D01*
X383865Y451116D01*
X384187Y451181D01*
X400805Y434563D01*
X400805Y434179D01*
X399829Y433201D01*
X394256D01*
Y431504D01*
X394119Y431412D01*
X391645Y428939D01*
X391314Y428443D01*
X391197Y427857D01*
Y414138D01*
X390197Y413834D01*
X390166Y413881D01*
X386866Y417181D01*
X386369Y417513D01*
X385784Y417629D01*
X375900D01*
X375315Y417513D01*
X374819Y417181D01*
X373919Y416281D01*
X373664Y415900D01*
X372000D01*
Y414529D01*
X365434D01*
X361561Y418402D01*
Y424819D01*
X365953D01*
Y429181D01*
X365498D01*
Y429400D01*
X365382Y429985D01*
X365050Y430481D01*
X364554Y430813D01*
X363969Y430929D01*
X340000D01*
X339415Y430813D01*
X338919Y430481D01*
X337950Y429513D01*
X337728Y429181D01*
X337047D01*
Y427841D01*
X336123Y427458D01*
X334760Y428822D01*
X334264Y429153D01*
X333679Y429270D01*
X311744D01*
Y429921D01*
X305807D01*
Y425559D01*
X311744D01*
Y426211D01*
X314268D01*
X315256Y426181D01*
Y421819D01*
X316695D01*
Y418858D01*
X314017Y416179D01*
X309350D01*
X308765Y416063D01*
X308269Y415731D01*
X299419Y406881D01*
X299087Y406385D01*
X298971Y405800D01*
Y351425D01*
Y337800D01*
Y316900D01*
X297500D01*
Y314400D01*
X300500D01*
X303500D01*
Y316900D01*
X302029D01*
Y337167D01*
X304633Y339771D01*
X307801D01*
X308184Y338847D01*
X306419Y337081D01*
X306087Y336585D01*
X305971Y336000D01*
Y332012D01*
Y316900D01*
X304500D01*
Y311100D01*
X310500D01*
Y316900D01*
X309029D01*
Y328107D01*
X310025Y328645D01*
X311000Y328451D01*
X311976Y328645D01*
X312802Y329198D01*
X313817Y328920D01*
X324026Y318711D01*
X323643Y317787D01*
X320827D01*
Y317415D01*
X320815Y317413D01*
X320319Y317081D01*
X319519Y316281D01*
X319187Y315785D01*
X319071Y315200D01*
Y292800D01*
X319187Y292215D01*
X319519Y291719D01*
X321319Y289919D01*
X321672Y289682D01*
X321752Y289026D01*
X321122Y288229D01*
X314833D01*
X312304Y290758D01*
Y291225D01*
X312188Y291810D01*
X311856Y292306D01*
X306106Y298056D01*
X305610Y298388D01*
X305025Y298504D01*
X304558D01*
X302029Y301033D01*
Y311100D01*
X303500D01*
Y313600D01*
X300500D01*
X297500D01*
Y311100D01*
X298971D01*
Y300400D01*
X299087Y299815D01*
X299419Y299319D01*
X302844Y295894D01*
X303340Y295562D01*
X303925Y295446D01*
X304392D01*
X307338Y292499D01*
X306956Y291575D01*
X301264D01*
Y290379D01*
X300819Y290081D01*
X299660Y288923D01*
X298736Y289306D01*
Y291575D01*
X296029D01*
Y415367D01*
X299393Y418730D01*
X305807D01*
Y418079D01*
X311744D01*
Y422441D01*
X305807D01*
Y421789D01*
X299393D01*
X287601Y433581D01*
X287105Y433913D01*
X286520Y434029D01*
X281655D01*
X281557Y434265D01*
X280996Y434996D01*
X280265Y435557D01*
X279414Y435910D01*
X278500Y436030D01*
X277586Y435910D01*
X276735Y435557D01*
X276004Y434996D01*
X275443Y434265D01*
X275090Y433414D01*
X275067Y433241D01*
X274059D01*
X274036Y433414D01*
X273683Y434265D01*
X273122Y434996D01*
X272391Y435557D01*
X271540Y435910D01*
X270626Y436030D01*
X269712Y435910D01*
X268861Y435557D01*
X268130Y434996D01*
X267569Y434265D01*
X267216Y433414D01*
X267096Y432500D01*
X267216Y431586D01*
X267569Y430735D01*
X268130Y430004D01*
X268861Y429443D01*
X269712Y429090D01*
X270626Y428970D01*
X271281Y429056D01*
X287371Y412966D01*
Y276634D01*
X280019Y269281D01*
X276919Y266181D01*
X276587Y265685D01*
X276471Y265100D01*
Y241382D01*
X269545Y234455D01*
X269213Y233959D01*
X269097Y233374D01*
Y231155D01*
X268861Y231057D01*
X268130Y230496D01*
X267569Y229765D01*
X267216Y228914D01*
X267096Y228000D01*
X267216Y227086D01*
X267569Y226235D01*
X268130Y225504D01*
X268861Y224943D01*
X269712Y224590D01*
X270626Y224470D01*
X271540Y224590D01*
X272391Y224943D01*
X273122Y225504D01*
X273683Y226235D01*
X274036Y227086D01*
X274059Y227259D01*
X275067D01*
X275090Y227086D01*
X275443Y226235D01*
X276004Y225504D01*
X276735Y224943D01*
X277586Y224590D01*
X278500Y224470D01*
X279414Y224590D01*
X280265Y224943D01*
X280996Y225504D01*
X281557Y226235D01*
X281910Y227086D01*
X282030Y228000D01*
X281910Y228914D01*
X281557Y229765D01*
X280996Y230496D01*
X280265Y231057D01*
X279414Y231410D01*
X278500Y231530D01*
X277586Y231410D01*
X276735Y231057D01*
X276004Y230496D01*
X275443Y229765D01*
X275090Y228914D01*
X275067Y228741D01*
X274059D01*
X274036Y228914D01*
X273683Y229765D01*
X273122Y230496D01*
X272391Y231057D01*
X272155Y231155D01*
Y232740D01*
X277126Y237711D01*
X280019Y234819D01*
X292919Y221919D01*
X293415Y221587D01*
X294000Y221471D01*
X314400D01*
X314985Y221587D01*
X315481Y221919D01*
X315529Y221990D01*
X335213D01*
Y221339D01*
X336750D01*
Y220720D01*
X336867Y220135D01*
X337198Y219639D01*
X342919Y213919D01*
X344419Y212419D01*
X344915Y212087D01*
X345500Y211971D01*
X510000D01*
X510585Y212087D01*
X511081Y212419D01*
X523351Y224688D01*
X523586Y224590D01*
X524500Y224470D01*
X525414Y224590D01*
X526265Y224943D01*
X526996Y225504D01*
X527557Y226235D01*
X527910Y227086D01*
X527933Y227259D01*
X528941D01*
X528964Y227086D01*
X529317Y226235D01*
X529878Y225504D01*
X530609Y224943D01*
X531460Y224590D01*
X532374Y224470D01*
X533288Y224590D01*
X534139Y224943D01*
X534870Y225504D01*
X535431Y226235D01*
X535784Y227086D01*
X535904Y228000D01*
X535784Y228914D01*
X535431Y229765D01*
X534870Y230496D01*
X534139Y231057D01*
X533288Y231410D01*
X532374Y231530D01*
X531460Y231410D01*
X530609Y231057D01*
X529878Y230496D01*
X529317Y229765D01*
X528964Y228914D01*
X528941Y228741D01*
X527933D01*
X527910Y228914D01*
X527557Y229765D01*
X526996Y230496D01*
X526944Y230536D01*
Y292925D01*
X529563D01*
Y298075D01*
X527029D01*
Y379425D01*
X529563D01*
Y384575D01*
X526029D01*
Y431845D01*
X526265Y431943D01*
X526996Y432504D01*
X527557Y433235D01*
X527910Y434086D01*
X527933Y434259D01*
X528941D01*
X528964Y434086D01*
X529317Y433235D01*
X529878Y432504D01*
X530609Y431943D01*
X531460Y431590D01*
X532374Y431470D01*
X533288Y431590D01*
X534139Y431943D01*
X534870Y432504D01*
X535431Y433235D01*
X535784Y434086D01*
X535904Y435000D01*
X535784Y435914D01*
X535431Y436765D01*
X534870Y437496D01*
X534139Y438057D01*
X533288Y438410D01*
X532374Y438530D01*
X532161Y438502D01*
X529081Y441581D01*
X528585Y441913D01*
X528000Y442029D01*
X520000D01*
X519415Y441913D01*
X518919Y441581D01*
X507919Y430581D01*
X507587Y430085D01*
X507471Y429500D01*
Y395199D01*
X506547Y394816D01*
X495029Y406333D01*
Y419079D01*
X496520D01*
Y423441D01*
X490583D01*
Y419079D01*
X491971D01*
Y405700D01*
X492087Y405115D01*
X492419Y404619D01*
X511462Y385575D01*
X511451Y384575D01*
X510437D01*
Y379425D01*
X518736D01*
Y384575D01*
X514529D01*
Y386200D01*
X514413Y386785D01*
X514081Y387281D01*
X510529Y390833D01*
Y428866D01*
X520634Y438971D01*
X522342D01*
X522603Y438363D01*
X522622Y437971D01*
X522004Y437496D01*
X521443Y436765D01*
X521090Y435914D01*
X520970Y435000D01*
X521090Y434086D01*
X521443Y433235D01*
X522004Y432504D01*
X522735Y431943D01*
X522971Y431845D01*
Y384575D01*
X521264D01*
Y379425D01*
X523971D01*
Y298075D01*
X521264D01*
Y292925D01*
X523885D01*
Y231449D01*
X523586Y231410D01*
X522735Y231057D01*
X522004Y230496D01*
X521443Y229765D01*
X521090Y228914D01*
X520970Y228000D01*
X521090Y227086D01*
X521188Y226851D01*
X509367Y215029D01*
X346133D01*
X345529Y215634D01*
Y217471D01*
X376200D01*
X376785Y217587D01*
X377281Y217919D01*
X380581Y221219D01*
X380913Y221715D01*
X381029Y222300D01*
Y225471D01*
X393301D01*
X393311Y225448D01*
X393804Y224804D01*
X394447Y224311D01*
X395196Y224001D01*
X396000Y223895D01*
X396804Y224001D01*
X397552Y224311D01*
X398196Y224804D01*
X398689Y225448D01*
X398999Y226196D01*
X399105Y227000D01*
X398999Y227804D01*
X398689Y228553D01*
X398196Y229196D01*
X397552Y229689D01*
X396804Y229999D01*
X396000Y230105D01*
X395196Y229999D01*
X394447Y229689D01*
X393804Y229196D01*
X393311Y228553D01*
X393301Y228529D01*
X381029D01*
Y233500D01*
X380913Y234085D01*
X380581Y234581D01*
X376937Y238226D01*
Y239971D01*
X427271D01*
Y237574D01*
X427387Y236989D01*
X427719Y236493D01*
X432935Y231276D01*
X432446Y230464D01*
X432383Y230414D01*
X431500Y230530D01*
X430586Y230410D01*
X429735Y230057D01*
X429004Y229496D01*
X428443Y228765D01*
X428345Y228529D01*
X408699D01*
X408689Y228553D01*
X408196Y229196D01*
X407552Y229689D01*
X406804Y229999D01*
X406000Y230105D01*
X405196Y229999D01*
X404448Y229689D01*
X403804Y229196D01*
X403311Y228553D01*
X403001Y227804D01*
X402895Y227000D01*
X403001Y226196D01*
X403311Y225448D01*
X403804Y224804D01*
X404448Y224311D01*
X405196Y224001D01*
X406000Y223895D01*
X406804Y224001D01*
X407552Y224311D01*
X408196Y224804D01*
X408689Y225448D01*
X408699Y225471D01*
X428345D01*
X428443Y225235D01*
X429004Y224504D01*
X429735Y223943D01*
X430586Y223590D01*
X431500Y223470D01*
X432414Y223590D01*
X433265Y223943D01*
X433996Y224504D01*
X434557Y225235D01*
X434910Y226086D01*
X434933Y226259D01*
X435941D01*
X435964Y226086D01*
X436317Y225235D01*
X436878Y224504D01*
X437609Y223943D01*
X438460Y223590D01*
X439374Y223470D01*
X440288Y223590D01*
X441139Y223943D01*
X441870Y224504D01*
X442431Y225235D01*
X442784Y226086D01*
X442904Y227000D01*
X442784Y227914D01*
X442431Y228765D01*
X441870Y229496D01*
X441139Y230057D01*
X440288Y230410D01*
X439374Y230530D01*
X438460Y230410D01*
X438225Y230312D01*
X430329Y238208D01*
Y240866D01*
X434581Y245119D01*
X434913Y245615D01*
X435029Y246200D01*
Y266000D01*
X436400D01*
Y267471D01*
X454400D01*
X454985Y267587D01*
X455481Y267919D01*
X457047Y269484D01*
X457971Y269101D01*
Y268268D01*
X457621Y259681D01*
X457079D01*
Y257900D01*
X459063D01*
Y257500D01*
X459463D01*
Y255319D01*
X464984D01*
Y255971D01*
X481800D01*
X482385Y256087D01*
X482881Y256419D01*
X484581Y258119D01*
X484913Y258615D01*
X484954Y258819D01*
X489421D01*
Y263181D01*
X489029D01*
Y322408D01*
X490383Y323761D01*
X491307Y323379D01*
Y322079D01*
X493571D01*
Y299600D01*
X493687Y299015D01*
X494019Y298519D01*
X498119Y294419D01*
X498615Y294087D01*
X499200Y293971D01*
X500867D01*
X507515Y287322D01*
X507451Y287000D01*
X507645Y286024D01*
X508198Y285198D01*
X509024Y284645D01*
X510000Y284451D01*
X510976Y284645D01*
X511802Y285198D01*
X512355Y286024D01*
X512549Y287000D01*
X512355Y287976D01*
X511802Y288802D01*
X510976Y289355D01*
X510000Y289549D01*
X509678Y289485D01*
X506116Y293047D01*
X506499Y293971D01*
X510437D01*
Y292925D01*
X518736D01*
Y298075D01*
X510437D01*
Y297029D01*
X499833D01*
X496629Y300234D01*
Y322079D01*
X497244D01*
Y323879D01*
X497531Y324116D01*
X498244Y324368D01*
X498515Y324187D01*
X499100Y324071D01*
X506900D01*
X507485Y324187D01*
X507981Y324519D01*
X508313Y325015D01*
X508429Y325600D01*
Y330440D01*
X508313Y331026D01*
X507981Y331522D01*
X506681Y332822D01*
X506185Y333153D01*
X505600Y333270D01*
X497244D01*
Y333921D01*
X491307D01*
Y329929D01*
X487900D01*
X487315Y329813D01*
X486819Y329481D01*
X485866Y328529D01*
X435900D01*
Y330000D01*
X433400D01*
Y327000D01*
Y324000D01*
X435900D01*
Y325471D01*
X481501D01*
X481884Y324547D01*
X464952Y307615D01*
X464028Y307997D01*
Y311070D01*
X463911Y311655D01*
X463580Y312152D01*
X462681Y313050D01*
X462185Y313382D01*
X462181Y313382D01*
Y313953D01*
X457819D01*
Y313498D01*
X437944D01*
X437781Y313660D01*
X437285Y313992D01*
X436700Y314108D01*
X416071D01*
Y316795D01*
Y320732D01*
Y322142D01*
X414087D01*
Y322821D01*
X416071D01*
Y324110D01*
X415629D01*
Y337200D01*
X415513Y337785D01*
X415181Y338281D01*
X412429Y341034D01*
Y355707D01*
X412800D01*
X413385Y355823D01*
X413881Y356155D01*
X416070Y358344D01*
X416402Y358840D01*
X416518Y359425D01*
Y359644D01*
X424966D01*
X428371Y356240D01*
Y328000D01*
X428487Y327415D01*
X428819Y326919D01*
X429819Y325919D01*
X430100Y325730D01*
Y324000D01*
X432600D01*
Y327000D01*
Y330000D01*
X431429D01*
Y331000D01*
X435900D01*
Y337000D01*
X434529D01*
Y338288D01*
X434955Y338925D01*
X435149Y339900D01*
X434955Y340876D01*
X434402Y341702D01*
X433575Y342255D01*
X432600Y342449D01*
X432429Y342415D01*
X431429Y343236D01*
Y356873D01*
X431313Y357458D01*
X430981Y357955D01*
X426681Y362255D01*
X426648Y362277D01*
X426697Y363426D01*
X427102Y363698D01*
X427655Y364525D01*
X427849Y365500D01*
X427655Y366476D01*
X427102Y367302D01*
X426742Y367543D01*
X426530Y368746D01*
X427455Y369671D01*
X432646D01*
X444994Y357322D01*
X444930Y357000D01*
X445124Y356025D01*
X445677Y355198D01*
X446504Y354645D01*
X447479Y354451D01*
X448455Y354645D01*
X449282Y355198D01*
X449834Y356025D01*
X450028Y357000D01*
X449834Y357976D01*
X449282Y358802D01*
X448455Y359355D01*
X447479Y359549D01*
X447157Y359485D01*
X434361Y372281D01*
X433864Y372613D01*
X433279Y372729D01*
X428656D01*
X427835Y373729D01*
X427849Y373800D01*
X427655Y374776D01*
X427102Y375602D01*
X426275Y376155D01*
X425300Y376349D01*
X424325Y376155D01*
X423498Y375602D01*
X422945Y374776D01*
X422751Y373800D01*
X422815Y373478D01*
X419914Y370577D01*
X413886D01*
X413525Y371016D01*
X413410Y371598D01*
X413141Y372000D01*
X413410Y372402D01*
X413525Y372984D01*
X413410Y373566D01*
X413141Y373969D01*
X413410Y374371D01*
X413525Y374953D01*
X413410Y375535D01*
X413141Y375937D01*
X413410Y376339D01*
X413525Y376921D01*
X413886Y377360D01*
X436890D01*
X436961Y377375D01*
X437034Y377367D01*
X437252Y377432D01*
X437475Y377477D01*
X437536Y377517D01*
X437606Y377538D01*
X437782Y377682D01*
X437971Y377808D01*
X438012Y377869D01*
X438068Y377915D01*
X438176Y378115D01*
X438303Y378305D01*
X438317Y378376D01*
X438352Y378440D01*
X438708Y379600D01*
X441000D01*
Y380971D01*
X455398D01*
X455536Y380704D01*
X455663Y379971D01*
X455099Y379538D01*
X454529Y378795D01*
X454170Y377929D01*
X454048Y377000D01*
X454170Y376071D01*
X454529Y375205D01*
X455099Y374462D01*
X455843Y373891D01*
X456709Y373533D01*
X457638Y373410D01*
X462362D01*
X463291Y373533D01*
X464157Y373891D01*
X464901Y374462D01*
X465471Y375205D01*
X465830Y376071D01*
X465952Y377000D01*
X465830Y377929D01*
X465471Y378795D01*
X464901Y379538D01*
X464337Y379971D01*
X464464Y380704D01*
X464602Y380971D01*
X476200D01*
X476785Y381087D01*
X477281Y381419D01*
X481333Y385471D01*
X484419D01*
X484529Y385205D01*
X485099Y384462D01*
X485843Y383891D01*
X486709Y383533D01*
X487638Y383410D01*
X492362D01*
X493291Y383533D01*
X494157Y383891D01*
X494901Y384462D01*
X495471Y385205D01*
X495830Y386071D01*
X495952Y387000D01*
X495830Y387929D01*
X495471Y388795D01*
X494901Y389538D01*
X494157Y390109D01*
X493291Y390467D01*
X492362Y390590D01*
X487638D01*
X486709Y390467D01*
X485843Y390109D01*
X485099Y389538D01*
X484529Y388795D01*
X484419Y388529D01*
X480700D01*
X480115Y388413D01*
X479619Y388081D01*
X475566Y384029D01*
X465921D01*
Y390559D01*
X454079D01*
Y384029D01*
X441000D01*
Y385400D01*
X439529D01*
Y395100D01*
X441000D01*
Y400900D01*
X440431D01*
X439745Y401628D01*
X440027Y406410D01*
X440021Y406455D01*
X440029Y406500D01*
Y411100D01*
X441500D01*
Y416900D01*
X436456D01*
X435777Y416900D01*
X435288Y417763D01*
X435331Y417868D01*
X437433Y419971D01*
X449547D01*
Y419319D01*
X451132D01*
Y421500D01*
X451932D01*
Y419319D01*
X457453D01*
Y419971D01*
X473547D01*
Y419319D01*
X481453D01*
Y423681D01*
X481453D01*
X481304Y424681D01*
X483834Y427211D01*
X490583D01*
Y426559D01*
X496520D01*
Y430203D01*
X497520Y430617D01*
X499271Y428866D01*
Y427200D01*
X499387Y426615D01*
X499719Y426119D01*
X500032Y425806D01*
Y425400D01*
X502600D01*
Y427563D01*
X502329Y427834D01*
Y429500D01*
X502213Y430085D01*
X501882Y430581D01*
X497081Y435381D01*
X496585Y435713D01*
X496000Y435829D01*
X461932D01*
X461346Y435713D01*
X460850Y435381D01*
X450450Y424981D01*
X450119Y424485D01*
X450002Y423900D01*
Y423681D01*
X449547D01*
Y423029D01*
X436800D01*
X436215Y422913D01*
X435719Y422581D01*
X433638Y420501D01*
X432581Y420281D01*
X427356Y425507D01*
X426860Y425838D01*
X426275Y425955D01*
X425878D01*
Y429559D01*
X421122D01*
Y429104D01*
X418300D01*
X417715Y428988D01*
X417219Y428656D01*
X416992Y428429D01*
X415744D01*
Y433201D01*
X409217D01*
Y431860D01*
X407833D01*
X386350Y453343D01*
X386414Y453665D01*
X386220Y454641D01*
X385668Y455468D01*
X384841Y456020D01*
X383865Y456214D01*
D02*
G37*
G36*
X505969Y427181D02*
X503400D01*
Y425400D01*
X505969D01*
Y427181D01*
D02*
G37*
G36*
Y424600D02*
X503400D01*
Y422819D01*
X505969D01*
Y424600D01*
D02*
G37*
%LPD*%
G36*
X313119Y285619D02*
X313615Y285287D01*
X314200Y285171D01*
X325037D01*
X325727Y284346D01*
X325784Y284039D01*
X325719Y283882D01*
X323344Y281507D01*
X323012Y281011D01*
X322896Y280425D01*
Y273378D01*
X322441D01*
Y271400D01*
X324425D01*
Y270600D01*
X322441D01*
Y268622D01*
X322896D01*
Y262275D01*
X322971Y261899D01*
Y255681D01*
X322516D01*
Y255029D01*
X317833D01*
X314200Y258663D01*
X313704Y258994D01*
X313119Y259111D01*
X303228D01*
X302820Y259029D01*
X296693D01*
Y259681D01*
X294124D01*
Y257500D01*
X293724D01*
Y257100D01*
X290756D01*
Y256721D01*
X289756Y256307D01*
X287766Y258297D01*
X287244Y259059D01*
X287244D01*
X287244Y259059D01*
Y263421D01*
X281307D01*
Y259059D01*
X283571D01*
Y258800D01*
X283687Y258215D01*
X284019Y257719D01*
X284872Y256865D01*
X284490Y255941D01*
X281307D01*
Y251579D01*
X282746D01*
Y243724D01*
X282863Y243139D01*
X283194Y242643D01*
X287015Y238822D01*
X286951Y238500D01*
X287145Y237525D01*
X287698Y236698D01*
X288525Y236145D01*
X289500Y235951D01*
X290476Y236145D01*
X291302Y236698D01*
X291855Y237525D01*
X292049Y238500D01*
X291855Y239475D01*
X291302Y240302D01*
X290476Y240855D01*
X289500Y241049D01*
X289178Y240985D01*
X285805Y244358D01*
Y250778D01*
X286805Y251192D01*
X296071Y241926D01*
Y230100D01*
X296187Y229515D01*
X296519Y229019D01*
X298119Y227419D01*
X298615Y227087D01*
X299200Y226971D01*
X299437D01*
Y225925D01*
X307736D01*
Y231075D01*
X299437D01*
X299129Y231947D01*
Y242560D01*
X299013Y243145D01*
X298681Y243641D01*
X291452Y250871D01*
X291866Y251871D01*
X302319D01*
X302904Y251987D01*
X303400Y252319D01*
X304123Y253042D01*
X305047Y252659D01*
Y251319D01*
X305502D01*
Y251200D01*
X305619Y250615D01*
X305950Y250119D01*
X307550Y248519D01*
X308046Y248187D01*
X308632Y248071D01*
X326837D01*
X327422Y248187D01*
X327918Y248519D01*
X328247Y248847D01*
X329171Y248464D01*
Y232560D01*
X329287Y231975D01*
X329619Y231478D01*
X334919Y226178D01*
X334592Y225210D01*
X334440Y225049D01*
X318862D01*
X318563Y225925D01*
X318563D01*
Y231075D01*
X310264D01*
Y225925D01*
X312871D01*
Y224529D01*
X294634D01*
X282181Y236981D01*
X279529Y239633D01*
Y264467D01*
X282181Y267119D01*
X301488Y286425D01*
X309563D01*
Y287760D01*
X310563Y288174D01*
X313119Y285619D01*
D02*
G37*
G36*
X395371Y333666D02*
X396215Y332822D01*
X396151Y332500D01*
X396345Y331524D01*
X396898Y330698D01*
X397725Y330145D01*
X398700Y329951D01*
X399549Y330120D01*
X399842Y330027D01*
X400549Y329526D01*
Y326571D01*
X400390D01*
Y324110D01*
X400313D01*
Y322421D01*
X399513D01*
Y324110D01*
X397929D01*
X397929Y324110D01*
Y324110D01*
X397929Y324110D01*
X397048Y324398D01*
X394045Y327347D01*
Y334036D01*
X395040Y334162D01*
X395371Y333666D01*
D02*
G37*
G36*
X457819Y306885D02*
X457345Y306175D01*
X457151Y305200D01*
X457345Y304224D01*
X457898Y303398D01*
X458724Y302845D01*
X459178Y302755D01*
X459508Y301671D01*
X458419Y300581D01*
X458087Y300085D01*
X457971Y299500D01*
Y288000D01*
X456600D01*
Y282000D01*
X457598D01*
X457998Y281000D01*
X456600D01*
Y278400D01*
X459500D01*
Y277600D01*
X456600D01*
Y275000D01*
X456823D01*
X457237Y274000D01*
X453766Y270529D01*
X438129D01*
Y280600D01*
X438013Y281185D01*
X437681Y281681D01*
X435029Y284333D01*
Y294500D01*
X436400D01*
Y295971D01*
X436800D01*
X437385Y296087D01*
X437881Y296419D01*
X439700Y298237D01*
Y300800D01*
X440100D01*
Y301200D01*
X442569D01*
X442455Y301776D01*
X441902Y302602D01*
X441469Y302892D01*
X441229Y304066D01*
X447602Y310439D01*
X457819D01*
Y306885D01*
D02*
G37*
G36*
X342415Y391122D02*
X342351Y390800D01*
X342415Y390478D01*
X342019Y390081D01*
X341687Y389585D01*
X341571Y389000D01*
Y351291D01*
X341181Y350453D01*
X339400D01*
Y348469D01*
X339000D01*
Y348069D01*
X336819D01*
Y347290D01*
X335819Y346876D01*
X331677Y351018D01*
Y389926D01*
X332677Y390229D01*
X332698Y390198D01*
X333524Y389645D01*
X334500Y389451D01*
X335475Y389645D01*
X336302Y390198D01*
X336855Y391024D01*
X337049Y392000D01*
X336855Y392975D01*
X336626Y393319D01*
X337160Y394319D01*
X339218D01*
X342415Y391122D01*
D02*
G37*
G36*
X390986Y322581D02*
Y302862D01*
X390898Y302802D01*
X390345Y301975D01*
X390231Y301400D01*
X395169D01*
X395055Y301975D01*
X394502Y302802D01*
X394229Y302985D01*
Y307064D01*
X395229Y307885D01*
X395400Y307851D01*
X396375Y308045D01*
X397202Y308598D01*
X397385Y308871D01*
X400390D01*
Y308429D01*
X402518D01*
Y307333D01*
X401419Y306234D01*
X401087Y305738D01*
X400971Y305153D01*
Y296500D01*
X401087Y295915D01*
X401419Y295419D01*
X408471Y288367D01*
Y286400D01*
X406900D01*
Y283500D01*
X406100D01*
Y286400D01*
X403500D01*
Y285881D01*
X403221Y285679D01*
X402500Y285438D01*
X401875Y285855D01*
X401300Y285969D01*
Y283500D01*
X400500D01*
Y285969D01*
X399924Y285855D01*
X399555Y285608D01*
X394045Y291118D01*
Y298892D01*
X394502Y299198D01*
X395055Y300025D01*
X395169Y300600D01*
X390231D01*
X390345Y300025D01*
X390898Y299198D01*
X390986Y299138D01*
Y290484D01*
X391103Y289899D01*
X391434Y289403D01*
X392415Y288422D01*
X392033Y287498D01*
X387181D01*
Y287953D01*
X382819D01*
Y287498D01*
X367681D01*
Y287953D01*
X367029D01*
Y299931D01*
X390062Y322964D01*
X390986Y322581D01*
D02*
G37*
G36*
X400719Y277619D02*
X401215Y277287D01*
X401800Y277171D01*
X419864D01*
X420685Y276171D01*
X420651Y276000D01*
X420845Y275025D01*
X421398Y274198D01*
X422225Y273645D01*
X423200Y273451D01*
X424176Y273645D01*
X425002Y274198D01*
X425185Y274471D01*
X430600D01*
Y273000D01*
X435071D01*
Y272000D01*
X433900D01*
Y269000D01*
X433500D01*
Y268600D01*
X430600D01*
Y266000D01*
X431971D01*
Y246833D01*
X428166Y243029D01*
X366800D01*
X366215Y242913D01*
X365719Y242581D01*
X365387Y242085D01*
X365271Y241500D01*
Y225433D01*
X364886Y225049D01*
X353426D01*
X353012Y226049D01*
X355388Y228426D01*
X355720Y228922D01*
X355836Y229507D01*
Y251083D01*
X359943D01*
Y255917D01*
X359222D01*
Y261714D01*
Y280474D01*
X359649Y280841D01*
X360698Y280998D01*
X361525Y280445D01*
X362411Y280269D01*
X363319Y280047D01*
Y280047D01*
X364253Y280047D01*
X367681D01*
Y284439D01*
X376872D01*
X377365Y283439D01*
X377077Y283007D01*
X376883Y282032D01*
X377077Y281056D01*
X377629Y280229D01*
X378456Y279677D01*
X379432Y279483D01*
X380407Y279677D01*
X381234Y280229D01*
X381416Y280502D01*
X382819D01*
Y280047D01*
X387181D01*
Y284439D01*
X393898D01*
X400719Y277619D01*
D02*
G37*
G36*
X405619Y425819D02*
X406115Y425487D01*
X406700Y425371D01*
X408809D01*
X409217Y424539D01*
X409217Y424371D01*
Y418799D01*
X415744D01*
Y424371D01*
X415744Y424539D01*
X416151Y425371D01*
X417625D01*
X418211Y425487D01*
X418707Y425819D01*
X418933Y426045D01*
X421122D01*
Y424825D01*
X423500D01*
Y424425D01*
X423900D01*
Y422441D01*
X425878D01*
X425878Y422441D01*
Y422441D01*
X426633Y421904D01*
X429971Y418567D01*
Y416900D01*
X428500D01*
Y414400D01*
X431500D01*
X434500D01*
Y416040D01*
X434552Y416070D01*
X435500Y415465D01*
Y411100D01*
X436971D01*
Y406545D01*
X436639Y400900D01*
X435000D01*
Y395100D01*
X436471D01*
Y385400D01*
X435000D01*
Y380419D01*
X434000D01*
Y382100D01*
X431000D01*
Y382900D01*
X434000D01*
Y385400D01*
X432529D01*
Y395100D01*
X434000D01*
Y397600D01*
X431000D01*
X428000D01*
Y395100D01*
X429471D01*
Y385400D01*
X428000D01*
Y384029D01*
X419034D01*
X418857Y383994D01*
X418492Y384177D01*
X418032Y384585D01*
X417929Y384752D01*
Y388600D01*
X417813Y389185D01*
X417481Y389681D01*
X413881Y393281D01*
X413385Y393613D01*
X412800Y393729D01*
X397453D01*
X397029Y393645D01*
X396465Y393922D01*
X396029Y394256D01*
Y402227D01*
X395913Y402812D01*
X395581Y403308D01*
X394256Y404634D01*
Y418799D01*
X400783D01*
Y424539D01*
X394256D01*
Y427224D01*
X394493Y427461D01*
X400783D01*
Y428801D01*
X402636D01*
X405619Y425819D01*
D02*
G37*
G36*
X356164Y255917D02*
X354707D01*
Y253500D01*
X354307D01*
Y253100D01*
X352057D01*
Y251083D01*
X352778D01*
Y234094D01*
X352567Y233181D01*
X346433D01*
Y232091D01*
X346419Y232081D01*
X342919Y228581D01*
X342587Y228085D01*
X342471Y227500D01*
Y219999D01*
X341547Y219616D01*
X340748Y220415D01*
X341131Y221339D01*
X341347D01*
Y225079D01*
Y230315D01*
X341413Y230415D01*
X341529Y231000D01*
Y254666D01*
X347940Y261078D01*
X356164D01*
Y255917D01*
D02*
G37*
G36*
X351827Y394213D02*
X357173D01*
Y394471D01*
X358421D01*
X369178Y383714D01*
X369674Y383382D01*
X370260Y383266D01*
X373114D01*
X373475Y382827D01*
X373590Y382245D01*
X373859Y381842D01*
X373590Y381440D01*
X373475Y380858D01*
X373590Y380276D01*
X373859Y379874D01*
X373590Y379472D01*
X373475Y378890D01*
X373590Y378308D01*
X373859Y377906D01*
X373590Y377503D01*
X373554Y377321D01*
X376177D01*
Y376521D01*
X373261D01*
X372060Y376387D01*
X369866Y378581D01*
X369370Y378913D01*
X368784Y379029D01*
X352000D01*
X351415Y378913D01*
X350919Y378581D01*
X345719Y373381D01*
X345629Y373248D01*
X344629Y373551D01*
Y388029D01*
X344900Y388251D01*
X345876Y388445D01*
X346702Y388998D01*
X347255Y389825D01*
X347449Y390800D01*
X347255Y391775D01*
X346702Y392602D01*
X345876Y393155D01*
X344900Y393349D01*
X344578Y393285D01*
X341392Y396471D01*
X341807Y397471D01*
X351827D01*
Y394213D01*
D02*
G37*
G36*
X379000Y410100D02*
X380471D01*
Y399099D01*
X379547Y398716D01*
X376529Y401733D01*
Y410100D01*
X378000D01*
Y412600D01*
X375000D01*
Y413400D01*
X378000D01*
Y414571D01*
X379000D01*
Y410100D01*
D02*
G37*
G36*
X376937Y233634D02*
Y233634D01*
X377710Y233127D01*
X377971Y232867D01*
Y227000D01*
Y223861D01*
X377937Y223838D01*
X376937Y224373D01*
Y227366D01*
X372400D01*
Y223610D01*
X371600D01*
Y227366D01*
X368329D01*
Y233634D01*
X376937D01*
X376937Y233634D01*
D02*
G37*
G36*
X369671Y337667D02*
Y324100D01*
X369787Y323515D01*
X370119Y323019D01*
X371719Y321419D01*
X372215Y321087D01*
X372800Y320971D01*
X373100D01*
Y319500D01*
X375600D01*
Y322500D01*
Y325500D01*
X374429D01*
Y326500D01*
X378900D01*
Y327971D01*
X383310D01*
X383895Y328087D01*
X384392Y328419D01*
X387692Y331719D01*
X388023Y332215D01*
X389018Y332089D01*
Y326245D01*
X364419Y301645D01*
X364087Y301149D01*
X363971Y300564D01*
Y287953D01*
X363319D01*
Y287498D01*
X346234D01*
X341929Y291802D01*
Y329600D01*
X341813Y330185D01*
X341481Y330681D01*
X337344Y334819D01*
X336848Y335150D01*
X336263Y335267D01*
X310344D01*
X309929Y336267D01*
X311734Y338071D01*
X341900D01*
X342485Y338187D01*
X342981Y338519D01*
X344181Y339719D01*
X344271Y339852D01*
X345271Y339549D01*
Y314400D01*
X345387Y313815D01*
X345719Y313319D01*
X350719Y308319D01*
X351215Y307987D01*
X351800Y307871D01*
X357987D01*
X358573Y307987D01*
X359069Y308319D01*
X360350Y309600D01*
X365000D01*
Y315400D01*
X359000D01*
Y313550D01*
X358882Y313472D01*
X358000Y313943D01*
Y315400D01*
X356529D01*
Y322267D01*
X357781Y323519D01*
X358113Y324015D01*
X358229Y324600D01*
Y327533D01*
X358233Y327536D01*
X359229Y327976D01*
X359724Y327645D01*
X360700Y327451D01*
X361676Y327645D01*
X362502Y328198D01*
X363055Y329025D01*
X363249Y330000D01*
X363055Y330976D01*
X362829Y331313D01*
Y335941D01*
X362713Y336526D01*
X362381Y337022D01*
X361885Y337354D01*
X361300Y337470D01*
X361004D01*
Y340287D01*
X356445D01*
Y340287D01*
X356279D01*
Y340287D01*
X354429D01*
Y343915D01*
X354702Y344098D01*
X355255Y344924D01*
X355449Y345900D01*
X355415Y346071D01*
X356236Y347071D01*
X360266D01*
X369671Y337667D01*
D02*
G37*
G36*
X338871Y328966D02*
Y291169D01*
X338987Y290583D01*
X339319Y290087D01*
X344519Y284887D01*
X345015Y284556D01*
X345600Y284439D01*
X356601D01*
X356984Y283515D01*
X356612Y283143D01*
X356280Y282647D01*
X356164Y282062D01*
Y264136D01*
X347307D01*
X346722Y264020D01*
X346226Y263688D01*
X338919Y256381D01*
X338587Y255885D01*
X338471Y255300D01*
Y233181D01*
X335213D01*
Y231517D01*
X334289Y231134D01*
X332229Y233193D01*
Y259775D01*
X332113Y260360D01*
X331781Y260856D01*
X329104Y263533D01*
Y268622D01*
X329559D01*
Y273378D01*
X325955D01*
Y279792D01*
X329018Y282856D01*
X329350Y283352D01*
X329466Y283937D01*
Y288819D01*
X329921D01*
Y290600D01*
X327937D01*
Y291000D01*
X327537D01*
Y293181D01*
X322382D01*
X322129Y293433D01*
Y311213D01*
X326173D01*
Y311471D01*
X326400D01*
X326985Y311587D01*
X327481Y311919D01*
X329181Y313619D01*
X329513Y314115D01*
X329629Y314700D01*
Y316800D01*
X329513Y317385D01*
X329181Y317881D01*
X315855Y331208D01*
X316269Y332208D01*
X335629D01*
X338871Y328966D01*
D02*
G37*
G36*
X358047Y424819D02*
X358502D01*
Y417768D01*
X358619Y417183D01*
X358950Y416687D01*
X363719Y411919D01*
X364215Y411587D01*
X364800Y411471D01*
X372000D01*
Y410100D01*
X373471D01*
Y401100D01*
X373587Y400515D01*
X373919Y400019D01*
X380939Y392998D01*
X380823Y392517D01*
X380562Y392045D01*
X380129Y391911D01*
X380123Y391910D01*
X380121Y391908D01*
X379574Y391739D01*
X379318Y391910D01*
X378736Y392025D01*
X378154Y391910D01*
X377660Y391580D01*
X377331Y391086D01*
X377215Y390504D01*
Y388285D01*
X376218D01*
X376177Y388293D01*
X374970D01*
X371468Y391795D01*
X371955Y392525D01*
X372149Y393500D01*
X371955Y394476D01*
X371402Y395302D01*
X370575Y395855D01*
X369600Y396049D01*
X368624Y395855D01*
X367798Y395302D01*
X367615Y395029D01*
X367600D01*
X367015Y394913D01*
X366519Y394581D01*
X366187Y394085D01*
X366071Y393500D01*
X366187Y392915D01*
X366519Y392419D01*
X371003Y387934D01*
X370674Y386849D01*
X370420Y386798D01*
X360136Y397081D01*
X359640Y397413D01*
X359055Y397529D01*
X357173D01*
Y400787D01*
X351827D01*
Y400529D01*
X341615D01*
X340481Y401663D01*
X339985Y401994D01*
X339400Y402111D01*
X330147D01*
X329562Y401994D01*
X329066Y401663D01*
X328734Y401166D01*
X328618Y400581D01*
Y350384D01*
X328734Y349799D01*
X329066Y349303D01*
X334539Y343829D01*
X334125Y342829D01*
X304000D01*
X303415Y342713D01*
X303029Y342456D01*
X302261Y342654D01*
X302029Y342750D01*
Y350792D01*
X304633Y353396D01*
X319622D01*
Y352941D01*
X321600D01*
Y354925D01*
X322000D01*
Y355325D01*
X324378D01*
Y356090D01*
Y360059D01*
X322729D01*
Y383815D01*
X323002Y383998D01*
X323555Y384824D01*
X323749Y385800D01*
X323555Y386775D01*
X323002Y387602D01*
X322729Y387785D01*
Y389015D01*
X323002Y389198D01*
X323555Y390024D01*
X323749Y391000D01*
X323555Y391975D01*
X323002Y392802D01*
X322176Y393355D01*
X321200Y393549D01*
X320224Y393355D01*
X319398Y392802D01*
X318845Y391975D01*
X318651Y391000D01*
X318845Y390024D01*
X319398Y389198D01*
X319671Y389015D01*
Y387785D01*
X319398Y387602D01*
X318845Y386775D01*
X318651Y385800D01*
X318845Y384824D01*
X319398Y383998D01*
X319671Y383815D01*
Y360059D01*
X319622D01*
Y356455D01*
X304000D01*
X303415Y356338D01*
X303029Y356081D01*
X302261Y356279D01*
X302029Y356375D01*
Y405166D01*
X309983Y413121D01*
X314650D01*
X315235Y413237D01*
X315731Y413569D01*
X319306Y417143D01*
X319637Y417639D01*
X319754Y418224D01*
Y421819D01*
X321193D01*
Y422471D01*
X333433D01*
X334066Y421837D01*
X334562Y421506D01*
X335147Y421389D01*
X350019D01*
X350604Y421506D01*
X351100Y421837D01*
X354733Y425471D01*
X358047D01*
Y424819D01*
D02*
G37*
%LPC*%
G36*
X293324Y259681D02*
X290756D01*
Y257900D01*
X293324D01*
Y259681D01*
D02*
G37*
G36*
X442569Y300400D02*
X440500D01*
Y298331D01*
X441076Y298445D01*
X441902Y298998D01*
X442455Y299825D01*
X442569Y300400D01*
D02*
G37*
G36*
X338600Y350453D02*
X336819D01*
Y348869D01*
X338600D01*
Y350453D01*
D02*
G37*
G36*
X433100Y272000D02*
X430600D01*
Y269400D01*
X433100D01*
Y272000D01*
D02*
G37*
G36*
X434500Y413600D02*
X431500D01*
X428500D01*
Y411100D01*
X429971D01*
Y406545D01*
X429639Y400900D01*
X428000D01*
Y398400D01*
X431000D01*
X434000D01*
Y400900D01*
X433431D01*
X432745Y401628D01*
X433027Y406410D01*
X433020Y406455D01*
X433029Y406500D01*
Y411100D01*
X434500D01*
Y413600D01*
D02*
G37*
G36*
X423100Y424025D02*
X421122D01*
Y422441D01*
X423100D01*
Y424025D01*
D02*
G37*
G36*
X353907Y255917D02*
X352057D01*
Y253900D01*
X353907D01*
Y255917D01*
D02*
G37*
G36*
X378900Y325500D02*
X376400D01*
Y322900D01*
X378900D01*
Y325500D01*
D02*
G37*
G36*
Y322100D02*
X376400D01*
Y319500D01*
X378900D01*
Y322100D01*
D02*
G37*
G36*
X329921Y293181D02*
X328337D01*
Y291400D01*
X329921D01*
Y293181D01*
D02*
G37*
G36*
X324378Y354525D02*
X322400D01*
Y352941D01*
X324378D01*
Y354525D01*
D02*
G37*
%LPD*%
D10*
X433000Y334000D02*
D03*
Y327000D02*
D03*
X433500Y276000D02*
D03*
Y269000D02*
D03*
Y304500D02*
D03*
Y297500D02*
D03*
X459500Y285000D02*
D03*
Y278000D02*
D03*
X355000Y371500D02*
D03*
Y364500D02*
D03*
X271500Y332500D02*
D03*
Y325500D02*
D03*
X376000Y329500D02*
D03*
Y322500D02*
D03*
D11*
X407000Y317500D02*
D03*
D12*
X402079Y324587D02*
D03*
X404047D02*
D03*
X406016D02*
D03*
X407984D02*
D03*
X409953D02*
D03*
X411921D02*
D03*
Y310413D02*
D03*
X409953D02*
D03*
X407984D02*
D03*
X406016D02*
D03*
X404047D02*
D03*
X402079D02*
D03*
D13*
X414087Y322421D02*
D03*
Y320453D02*
D03*
Y318484D02*
D03*
Y316516D02*
D03*
Y314547D02*
D03*
Y312579D02*
D03*
X399913D02*
D03*
Y314547D02*
D03*
Y316516D02*
D03*
Y318484D02*
D03*
Y320453D02*
D03*
Y322421D02*
D03*
D14*
X339000Y348469D02*
D03*
Y344532D02*
D03*
X365500Y285969D02*
D03*
Y282032D02*
D03*
X385000Y285969D02*
D03*
Y282032D02*
D03*
X460000Y311969D02*
D03*
Y308032D02*
D03*
D15*
X354500Y399000D02*
D03*
Y396000D02*
D03*
X323500Y316000D02*
D03*
Y313000D02*
D03*
D16*
X327937Y291000D02*
D03*
X324000D02*
D03*
X337969Y396500D02*
D03*
X334032D02*
D03*
X328437Y253500D02*
D03*
X324500D02*
D03*
X463000Y257500D02*
D03*
X459063D02*
D03*
X310969Y253500D02*
D03*
X307032D02*
D03*
X487437Y261000D02*
D03*
X483500D02*
D03*
X363969Y427000D02*
D03*
X360032D02*
D03*
X455469Y421500D02*
D03*
X451532D02*
D03*
X342969Y427000D02*
D03*
X339032D02*
D03*
X479469Y421500D02*
D03*
X475532D02*
D03*
D17*
X322000Y354925D02*
D03*
Y358075D02*
D03*
X423500Y424425D02*
D03*
Y427575D02*
D03*
D18*
X354000Y338500D02*
D03*
Y335941D02*
D03*
Y333382D02*
D03*
X358724D02*
D03*
Y335941D02*
D03*
Y338500D02*
D03*
D19*
X397520Y421669D02*
D03*
X412480D02*
D03*
X397520Y430331D02*
D03*
X412480D02*
D03*
D20*
X362000Y312500D02*
D03*
X355000D02*
D03*
X382000Y413000D02*
D03*
X375000D02*
D03*
X438000Y398000D02*
D03*
X431000D02*
D03*
X307500Y314000D02*
D03*
X300500D02*
D03*
X413500Y283500D02*
D03*
X406500D02*
D03*
X438000Y382500D02*
D03*
X431000D02*
D03*
X438500Y414000D02*
D03*
X431500D02*
D03*
D21*
X271500Y279402D02*
D03*
Y304598D02*
D03*
D22*
X376177Y386764D02*
D03*
Y384795D02*
D03*
Y382827D02*
D03*
Y380858D02*
D03*
Y378890D02*
D03*
Y376921D02*
D03*
Y374953D02*
D03*
Y372984D02*
D03*
Y371016D02*
D03*
Y369047D02*
D03*
Y367079D02*
D03*
Y365110D02*
D03*
Y363142D02*
D03*
Y361173D02*
D03*
Y359205D02*
D03*
Y357236D02*
D03*
X410823D02*
D03*
Y359205D02*
D03*
Y361173D02*
D03*
Y363142D02*
D03*
Y365110D02*
D03*
Y367079D02*
D03*
Y369047D02*
D03*
Y371016D02*
D03*
Y372984D02*
D03*
Y374953D02*
D03*
Y376921D02*
D03*
Y378890D02*
D03*
Y380858D02*
D03*
Y382827D02*
D03*
Y384795D02*
D03*
Y386764D02*
D03*
D23*
X378736Y354677D02*
D03*
X380705D02*
D03*
X382673D02*
D03*
X384642D02*
D03*
X386610D02*
D03*
X388579D02*
D03*
X390547D02*
D03*
X392516D02*
D03*
X394484D02*
D03*
X396453D02*
D03*
X398421D02*
D03*
X400390D02*
D03*
X402358D02*
D03*
X404327D02*
D03*
X406295D02*
D03*
X408264D02*
D03*
Y389323D02*
D03*
X406295D02*
D03*
X404327D02*
D03*
X402358D02*
D03*
X400390D02*
D03*
X398421D02*
D03*
X396453D02*
D03*
X394484D02*
D03*
X392516D02*
D03*
X390547D02*
D03*
X388579D02*
D03*
X386610D02*
D03*
X384642D02*
D03*
X382673D02*
D03*
X380705D02*
D03*
X378736D02*
D03*
D24*
X393500Y372000D02*
D03*
D25*
X293724Y257500D02*
D03*
X284276Y253760D02*
D03*
Y261240D02*
D03*
X503724Y328000D02*
D03*
X494276Y324260D02*
D03*
Y331740D02*
D03*
X318224Y424000D02*
D03*
X308776Y420260D02*
D03*
Y427740D02*
D03*
X503000Y425000D02*
D03*
X493551Y421260D02*
D03*
Y428740D02*
D03*
D26*
X324425Y271000D02*
D03*
X327575D02*
D03*
D27*
X357693Y253500D02*
D03*
X354307D02*
D03*
D28*
X314413Y228500D02*
D03*
X303587D02*
D03*
X525413Y295500D02*
D03*
X514587D02*
D03*
X305413Y289000D02*
D03*
X294587D02*
D03*
X525413Y382000D02*
D03*
X514587D02*
D03*
D29*
X372000Y237390D02*
D03*
Y223610D02*
D03*
D30*
X349500Y231000D02*
D03*
Y223520D02*
D03*
X338280D02*
D03*
Y227260D02*
D03*
Y231000D02*
D03*
D31*
X410900Y340400D02*
Y357236D01*
X414100Y322421D02*
Y337200D01*
X459500Y279700D02*
X462400D01*
X392516Y290484D02*
Y301184D01*
X379500Y227000D02*
X396000D01*
X406000D02*
X431500D01*
X428800Y237574D02*
X439374Y227000D01*
X428800Y237574D02*
Y241500D01*
X270626Y228000D02*
Y228026D01*
X284276Y243724D02*
X289500Y238500D01*
X284276Y243724D02*
Y253760D01*
X520000Y440500D02*
X528000D01*
X532374Y436126D01*
Y435000D02*
Y436126D01*
X524500Y382913D02*
X525413Y382000D01*
X270626Y431874D02*
Y432500D01*
X286520D02*
X298760Y420260D01*
X278500Y432500D02*
X286520D01*
X455469Y421500D02*
X475532D01*
X418300Y427575D02*
X423500D01*
X417625Y426900D02*
X418300Y427575D01*
X406700Y426900D02*
X417625D01*
X403269Y430331D02*
X406700Y426900D01*
X397520Y430331D02*
X403269D01*
X386610Y354677D02*
X388579D01*
X431000Y382500D02*
Y398000D01*
X376177Y374953D02*
Y376921D01*
Y367079D02*
Y369047D01*
X324500Y253500D02*
Y262200D01*
X324425Y262275D02*
X324500Y262200D01*
X324425Y262275D02*
Y271000D01*
X365500Y285969D02*
X385000D01*
X438000Y382500D02*
Y398000D01*
X355000Y371500D02*
X366246D01*
X366730Y371016D01*
X376177D01*
X390547Y387200D02*
Y389323D01*
Y387200D02*
X391347Y386400D01*
X395653D01*
X396453Y387200D01*
Y389323D01*
X407900Y377990D02*
X408800Y378890D01*
X407900Y360105D02*
Y377990D01*
Y360105D02*
X408800Y359205D01*
X410823D01*
X363969Y427000D02*
Y429400D01*
X340000D02*
X363969D01*
X339032Y428432D02*
X340000Y429400D01*
X339032Y427000D02*
Y428432D01*
X271500Y279402D02*
X283800Y291702D01*
Y327000D01*
X278400Y332400D02*
X283800Y327000D01*
X271500Y332400D02*
Y332500D01*
X294500Y289000D02*
X294587D01*
X294500Y416000D02*
X298760Y420260D01*
X308776D01*
X355000Y312500D02*
Y322900D01*
X356700Y324600D01*
Y333382D01*
X358724D01*
X413500Y283500D02*
Y298000D01*
X414087Y298587D01*
Y312579D01*
X314400Y228500D02*
X314413D01*
X327575Y262900D02*
Y271000D01*
Y262900D02*
X330700Y259775D01*
Y232560D02*
Y259775D01*
Y232560D02*
X336000Y227260D01*
X338280D01*
X454400Y269000D02*
X459500Y274100D01*
Y278000D01*
X479469Y421500D02*
Y425009D01*
X483200Y428740D01*
X493551D01*
X304000Y354925D02*
X322000D01*
X300500Y351425D02*
X304000Y354925D01*
X493500Y421260D02*
X493551D01*
X493500Y405700D02*
X513000Y386200D01*
X347500Y231000D02*
X349500D01*
X426275Y424425D02*
X431500Y419200D01*
X423500Y424425D02*
X426275D01*
X327937Y289600D02*
Y291000D01*
X325037Y286700D02*
X327937Y289600D01*
X314200Y286700D02*
X325037D01*
X305025Y296975D02*
X310775Y291225D01*
X300500Y300400D02*
Y314000D01*
X401221Y384400D02*
X404000D01*
X405100Y383300D01*
Y380800D02*
Y383300D01*
Y380800D02*
X407010Y378890D01*
X360032Y417768D02*
Y427000D01*
Y417768D02*
X364800Y413000D01*
X375000D01*
X324425Y271000D02*
Y280425D01*
X327937Y283937D01*
X328437Y251200D02*
Y253500D01*
X326837Y249600D02*
X328437Y251200D01*
X308632Y249600D02*
X326837D01*
X307032Y251200D02*
X308632Y249600D01*
X307032Y251200D02*
Y253500D01*
X496000Y434300D02*
X500800Y429500D01*
X461932Y434300D02*
X496000D01*
X451532Y423900D02*
X461932Y434300D01*
X451532Y421500D02*
Y423900D01*
X308776Y427740D02*
X333679D01*
X336800Y424619D01*
X341987D01*
X342969Y425600D01*
Y427000D01*
X354100D02*
X360032D01*
X350019Y422919D02*
X354100Y427000D01*
X335147Y422919D02*
X350019D01*
X334066Y424000D02*
X335147Y422919D01*
X318224Y424000D02*
X334066D01*
X396453Y389323D02*
Y391200D01*
X397453Y392200D01*
X412800D01*
X416400Y388600D01*
Y384458D02*
Y388600D01*
X412800Y380858D02*
X416400Y384458D01*
X384642Y351400D02*
Y354677D01*
X372900Y339658D02*
X384642Y351400D01*
X372900Y322500D02*
Y339658D01*
Y322500D02*
X376000D01*
Y329500D02*
X383310D01*
X386610Y332800D01*
Y354677D01*
X392516D02*
Y356800D01*
X391716Y357600D02*
X392516Y356800D01*
X385442Y357600D02*
X391716D01*
X384642Y356800D02*
X385442Y357600D01*
X384642Y354677D02*
Y356800D01*
X396453Y345300D02*
Y354677D01*
Y345300D02*
X402079Y339674D01*
Y324587D02*
Y339674D01*
X363268Y282032D02*
X365500D01*
X362500Y282800D02*
X363268Y282032D01*
X361600Y285969D02*
X365500D01*
X357693Y282062D02*
X361600Y285969D01*
X354307Y229507D02*
Y253500D01*
X350100Y225300D02*
X354307Y229507D01*
X349500Y225300D02*
X350100D01*
X349500Y223520D02*
Y225300D01*
X338280Y231000D02*
X340000D01*
Y255300D02*
X347307Y262607D01*
X356800D01*
X357693Y261714D01*
X300500Y405800D02*
X309350Y414650D01*
X300500Y337800D02*
X304000Y341300D01*
X340300D01*
X341400Y342400D01*
Y348469D01*
X339000D02*
X341400D01*
X414087Y322421D02*
X414100D01*
X410900Y340400D02*
X414100Y337200D01*
X375000Y401100D02*
Y413000D01*
Y401100D02*
X384642Y391458D01*
Y389323D02*
Y391458D01*
X386610Y389323D02*
Y392300D01*
X382000Y396910D02*
X386610Y392300D01*
X382000Y396910D02*
Y413000D01*
X372900Y366900D02*
X373079Y367079D01*
X376177D01*
Y369047D02*
X378300D01*
X379051Y369798D01*
Y374700D01*
X378798Y374953D02*
X379051Y374700D01*
X376177Y374953D02*
X378798D01*
X380751Y367351D02*
Y382549D01*
X378510Y365110D02*
X380751Y367351D01*
X376177Y365110D02*
X378510D01*
X407200Y430331D02*
X412480D01*
X383865Y453665D02*
X407200Y430331D01*
X321200Y358075D02*
X322000D01*
X394484Y389323D02*
Y393484D01*
X394500Y393500D01*
Y402227D01*
X392727Y404000D02*
X394500Y402227D01*
X392727Y404000D02*
Y427857D01*
X395200Y430331D01*
X397520D01*
X375000Y413000D02*
Y415200D01*
X375900Y416100D01*
X385784D01*
X389084Y412800D01*
Y393482D02*
Y412800D01*
Y393482D02*
X390547Y392019D01*
Y389323D02*
Y392019D01*
X409953Y324587D02*
Y331800D01*
X432600Y339900D02*
X433000Y339500D01*
Y334000D02*
Y339500D01*
X406016Y304816D02*
Y310413D01*
X405200Y304000D02*
X406016Y304816D01*
X392516Y301184D02*
X392700Y301000D01*
X404047Y306700D02*
Y310413D01*
X402500Y305153D02*
X404047Y306700D01*
X402500Y296500D02*
Y305153D01*
Y296500D02*
X410000Y289000D01*
Y280400D02*
Y289000D01*
Y280400D02*
X419400D01*
X426700Y287700D01*
Y300800D01*
X430400Y304500D01*
X433500D01*
X495100Y299600D02*
X499200Y295500D01*
X494276Y324260D02*
X495100D01*
X494276Y331740D02*
X505600D01*
X506900Y330440D01*
Y325600D02*
Y330440D01*
X499100Y325600D02*
X506900D01*
X498059Y326641D02*
X499100Y325600D01*
X491100Y326641D02*
X498059D01*
X487500Y323041D02*
X491100Y326641D01*
X487437Y261000D02*
X487500D01*
X503324Y328400D02*
X503724Y328000D01*
X487200Y327000D02*
X488600Y328400D01*
X322400Y291000D02*
X324000D01*
X320600Y292800D02*
X322400Y291000D01*
X320600Y292800D02*
Y315200D01*
X321400Y316000D01*
X323500D01*
X310969Y253500D02*
Y255700D01*
X310787Y255881D02*
X310969Y255700D01*
X304800Y255881D02*
X310787D01*
X302319Y253400D02*
X304800Y255881D01*
X284276Y261240D02*
X285100D01*
X303147Y257500D02*
X303228Y257581D01*
X313119D01*
X317200Y253500D01*
X324500D01*
X464198Y281498D02*
Y304698D01*
X462400Y279700D02*
X464198Y281498D01*
X459500Y278000D02*
Y279700D01*
X460000Y311969D02*
X461600D01*
X462498Y311070D01*
Y302498D02*
Y311070D01*
X459500Y299500D02*
X462498Y302498D01*
X459500Y285000D02*
Y299500D01*
X460000Y305500D02*
Y308032D01*
X459700Y305200D02*
X460000Y305500D01*
X402079Y310400D02*
Y310413D01*
X433500Y246200D02*
Y269000D01*
X428800Y241500D02*
X433500Y246200D01*
X366800Y241500D02*
X428800D01*
X366800Y224800D02*
Y241500D01*
Y224800D02*
X367990Y223610D01*
X372000D01*
X423200Y276000D02*
X433500D01*
X407984Y300800D02*
Y310413D01*
X410823Y369047D02*
X420547D01*
X425300Y373800D01*
X417392Y380858D02*
X419034Y382500D01*
X431000D01*
X425600Y361173D02*
X429900Y356873D01*
Y328000D02*
Y356873D01*
Y328000D02*
X430900Y327000D01*
X433000D01*
X396879Y322421D02*
X399913D01*
X392700Y318242D02*
X396879Y322421D01*
X392700Y301000D02*
Y318242D01*
X436800Y297500D02*
X440100Y300800D01*
X433500Y297500D02*
X436800D01*
X412800Y357236D02*
X414989Y359425D01*
Y360000D01*
X413816Y361173D02*
X414989Y360000D01*
X410823Y361173D02*
X413816D01*
X391800Y396200D02*
X392516Y395484D01*
Y389323D02*
Y395484D01*
X390547Y325611D02*
Y354677D01*
X365500Y300564D02*
X390547Y325611D01*
X365500Y285969D02*
Y300564D01*
X436700Y312579D02*
X437310Y311969D01*
X414087Y312579D02*
X436700D01*
X433500Y283700D02*
Y297500D01*
Y283700D02*
X436600Y280600D01*
Y269000D02*
Y280600D01*
X336000Y344532D02*
X339000D01*
X330147Y350384D02*
X336000Y344532D01*
X330147Y350384D02*
Y400581D01*
X339400D01*
X340981Y399000D01*
X354500D01*
X424910Y365110D02*
X425300Y365500D01*
X410823Y365110D02*
X424910D01*
X271500Y332500D02*
Y345900D01*
X352900Y338500D02*
X354000D01*
X370260Y384795D02*
X376177D01*
X359055Y396000D02*
X370260Y384795D01*
X354500Y396000D02*
X359055D01*
X379432Y282032D02*
X385000D01*
X463000Y257500D02*
X481800D01*
X483500Y259200D01*
Y261000D01*
X323500Y313000D02*
X326400D01*
X328100Y314700D01*
Y316800D01*
X313900Y331000D02*
X328100Y316800D01*
X311000Y331000D02*
X313900D01*
X367600Y393500D02*
X369600D01*
X374336Y386764D02*
X376177D01*
X284276Y253760D02*
X286400D01*
X297600Y230100D02*
Y242560D01*
Y230100D02*
X299200Y228500D01*
X303587D01*
X361087Y312500D02*
X362000D01*
X357987Y309400D02*
X361087Y312500D01*
X351800Y309400D02*
X357987D01*
X346800Y314400D02*
X351800Y309400D01*
X346800Y314400D02*
Y372300D01*
X352000Y377500D01*
X368784D01*
X373300Y372984D01*
X376177D01*
X271500Y325500D02*
X278600D01*
X360700Y330000D02*
X361300Y330600D01*
Y335941D01*
X358724D02*
X361300D01*
X352000Y333382D02*
X354000D01*
X348500Y336882D02*
X352000Y333382D01*
X348500Y336882D02*
Y351500D01*
X355000Y358000D01*
Y364500D01*
X410823Y367079D02*
X422700D01*
X426821Y371200D01*
X433279D01*
X447479Y357000D01*
X384642Y386400D02*
Y389323D01*
X382900Y384658D02*
X384642Y386400D01*
X382900Y358900D02*
X384642Y356800D01*
X431000Y398000D02*
X431500Y406500D01*
Y414000D01*
X436800Y421500D02*
X451532D01*
X431500Y416200D02*
X436800Y421500D01*
X431500Y414000D02*
Y416200D01*
X392516Y290484D02*
X399500Y283500D01*
X392516Y326705D02*
Y354677D01*
Y326705D02*
X396879Y322421D01*
X371200Y324100D02*
X372800Y322500D01*
X371200Y324100D02*
Y338300D01*
X360900Y348600D02*
X371200Y338300D01*
X351200Y348600D02*
X360900D01*
X350200Y347600D02*
X351200Y348600D01*
X350200Y337800D02*
Y347600D01*
Y337800D02*
X352059Y335941D01*
X354000D01*
X409953Y304747D02*
X410700Y304000D01*
X409953Y304747D02*
Y310413D01*
X459063Y257500D02*
X459500Y268237D01*
X385000Y285969D02*
X394531D01*
X401800Y278700D01*
X422850D01*
X429800Y285650D01*
Y300000D01*
X430800Y301000D01*
X436000D01*
X446969Y311969D01*
X340400Y291169D02*
X345600Y285969D01*
X340400Y291169D02*
Y329600D01*
X336263Y333737D02*
X340400Y329600D01*
X309225Y333737D02*
X336263D01*
X307500Y332012D02*
X309225Y333737D01*
X398421Y387200D02*
Y389323D01*
Y387200D02*
X399011Y386611D01*
X396800Y384400D02*
X399011Y386611D01*
X390400Y384400D02*
X396800D01*
X388579Y386221D02*
X390400Y384400D01*
X388579Y386221D02*
Y389323D01*
X337969Y396500D02*
X339200D01*
X344900Y390800D01*
X343100Y389000D02*
X344900Y390800D01*
X343100Y340800D02*
Y389000D01*
X341900Y339600D02*
X343100Y340800D01*
X311100Y339600D02*
X341900D01*
X307500Y336000D02*
X311100Y339600D01*
X307500Y332012D02*
Y336000D01*
Y314000D02*
Y332012D01*
X436890Y378890D02*
X438000Y382500D01*
X410823Y378890D02*
X436890D01*
X438000Y398000D02*
X438500Y406500D01*
Y414000D01*
X438000Y382500D02*
X476200D01*
X480700Y387000D01*
X490000D01*
X344000Y219000D02*
X376200D01*
X396453Y334747D02*
Y345300D01*
X285100Y258800D02*
Y261240D01*
X487500Y261000D02*
Y323041D01*
X321200Y358075D02*
Y385800D01*
Y391000D01*
X271500Y332400D02*
X278400D01*
X352900Y338500D02*
Y345900D01*
X300500Y314000D02*
Y337800D01*
Y351425D01*
Y405800D01*
X327937Y283937D02*
Y289600D01*
X372800Y322500D02*
X372900D01*
Y339658D02*
Y366900D01*
X399500Y283500D02*
X400900D01*
X406500D01*
X392516Y301184D02*
Y326705D01*
X433500Y269000D02*
X436600D01*
X454400D01*
X459500Y268237D02*
Y274100D01*
X464198Y304698D02*
X486500Y327000D01*
X487900Y328400D01*
X410823Y357236D02*
X410900D01*
X412800D01*
X413816Y361173D02*
X425600D01*
X410823Y380858D02*
X412800D01*
X417392D01*
X433000Y327000D02*
X486500D01*
X487200D01*
X487900Y328400D02*
X488600D01*
X503324D01*
X431500Y416200D02*
Y419200D01*
X357693Y253500D02*
Y261714D01*
Y282062D01*
X345600Y285969D02*
X361600D01*
X399011Y386611D02*
X401221Y384400D01*
X437310Y311969D02*
X446969D01*
X460000D01*
X407010Y378890D02*
X408800D01*
X410823D01*
X513000Y382000D02*
Y386200D01*
X493500Y405700D02*
Y421260D01*
X513000Y382000D02*
X514587D01*
X334032Y392468D02*
X334500Y392000D01*
X334032Y392468D02*
Y396500D01*
X367600Y393500D02*
X374336Y386764D01*
X396453Y334747D02*
X398700Y332500D01*
X382900Y358900D02*
Y384658D01*
X380100Y383200D02*
X380751Y382549D01*
X394484Y354677D02*
Y358500D01*
X398000D01*
X499200Y295500D02*
X514587D01*
X495100Y299600D02*
Y324260D01*
X501500Y295500D02*
X510000Y287000D01*
X509000Y429500D02*
X520000Y440500D01*
X509000Y390200D02*
Y429500D01*
X525500Y295500D02*
Y381913D01*
X524500Y382000D02*
Y435000D01*
X286400Y253760D02*
X297600Y242560D01*
X285100Y258800D02*
X290500Y253400D01*
X293724Y257500D02*
X303147D01*
X290500Y253400D02*
X302319D01*
X281100Y235900D02*
X294000Y223000D01*
X308900D01*
X278000Y239000D02*
X281100Y235900D01*
X278000Y239000D02*
Y265100D01*
X281100Y268200D01*
X270626Y228026D02*
Y233374D01*
X277752Y240500D01*
X308900Y223000D02*
X314400D01*
Y223100D02*
Y228500D01*
X314820Y223520D02*
X338280D01*
X525415Y228915D02*
Y295510D01*
X524500Y228000D02*
X525415Y228915D01*
X345500Y213500D02*
X510000D01*
X524500Y228000D01*
X376200Y219000D02*
X379500Y222300D01*
X372000Y237390D02*
X375610D01*
X379500Y233500D01*
Y227000D02*
Y233500D01*
Y222300D02*
Y227000D01*
X303925Y296975D02*
X305025D01*
X300500Y300400D02*
X303925Y296975D01*
X310775Y290125D02*
Y291225D01*
Y290125D02*
X314200Y286700D01*
X309350Y414650D02*
X314650D01*
X318224Y418224D01*
Y424000D01*
X270626Y431874D02*
X288900Y413600D01*
Y276000D02*
Y413600D01*
X344000Y227500D02*
X347500Y231000D01*
X344000Y215000D02*
Y227500D01*
Y215000D02*
X345500Y213500D01*
X338280Y220720D02*
Y223520D01*
Y220720D02*
X344000Y215000D01*
X340000Y231000D02*
Y255300D01*
X349500Y223520D02*
X365520D01*
X366800Y224800D01*
X500800Y427200D02*
Y429500D01*
Y427200D02*
X503000Y425000D01*
X281100Y268200D02*
X301900Y289000D01*
X305413D01*
X525415Y295510D02*
X525500Y295500D01*
X294500Y289000D02*
Y416000D01*
X395400Y310400D02*
X402079D01*
D32*
X406000Y227000D02*
D03*
X396000D02*
D03*
D33*
X270626Y228000D02*
D03*
X278500D02*
D03*
X524500D02*
D03*
X532374D02*
D03*
X431500Y227000D02*
D03*
X439374D02*
D03*
X270626Y432500D02*
D03*
X278500D02*
D03*
X524500Y435000D02*
D03*
X532374D02*
D03*
D34*
X460000Y387000D02*
D03*
D35*
Y377000D02*
D03*
Y367000D02*
D03*
Y357000D02*
D03*
Y347000D02*
D03*
X490000Y387000D02*
D03*
Y377000D02*
D03*
Y367000D02*
D03*
Y357000D02*
D03*
Y347000D02*
D03*
D36*
X289500Y238500D02*
D03*
X362500Y282800D02*
D03*
X383865Y453665D02*
D03*
X321200Y391000D02*
D03*
X409953Y331800D02*
D03*
X432600Y339900D02*
D03*
X405200Y304000D02*
D03*
X392700Y301000D02*
D03*
X459700Y305200D02*
D03*
X395400Y310400D02*
D03*
X423200Y276000D02*
D03*
X407984Y300800D02*
D03*
X425300Y373800D02*
D03*
X440100Y300800D02*
D03*
X321200Y385800D02*
D03*
X391800Y396200D02*
D03*
X425300Y365500D02*
D03*
X271500Y345900D02*
D03*
X352900D02*
D03*
X379432Y282032D02*
D03*
X311000Y331000D02*
D03*
X369600Y393500D02*
D03*
X278600Y325500D02*
D03*
X360700Y330000D02*
D03*
X447479Y357000D02*
D03*
X400900Y283500D02*
D03*
X410700Y304000D02*
D03*
X344900Y390800D02*
D03*
X334500Y392000D02*
D03*
X398700Y332500D02*
D03*
X510000Y287000D02*
D03*
D37*
X409165Y315335D02*
D03*
X404835D02*
D03*
X409165Y319665D02*
D03*
X404835D02*
D03*
X387004Y380661D02*
D03*
X391335D02*
D03*
X395665D02*
D03*
X399996D02*
D03*
X387004Y376331D02*
D03*
X391335D02*
D03*
X395665D02*
D03*
X399996D02*
D03*
X387004Y372000D02*
D03*
X391335D02*
D03*
X395665D02*
D03*
X399996D02*
D03*
X387004Y367669D02*
D03*
X391335D02*
D03*
X395665D02*
D03*
X399996D02*
D03*
X387004Y363339D02*
D03*
X391335D02*
D03*
X395665D02*
D03*
X399996D02*
D03*
D38*
X380100Y383200D02*
D03*
D39*
X398000Y358500D02*
D03*
M02*
