G04 Layer_Color=8388736*
%FSLAX25Y25*%
%MOIN*%
G70*
G01*
G75*
%ADD43R,0.04400X0.04600*%
%ADD44R,0.11230X0.10836*%
%ADD45R,0.01978X0.02569*%
%ADD46R,0.02569X0.01978*%
%ADD47R,0.02962X0.02569*%
%ADD48R,0.03947X0.02175*%
%ADD49R,0.02569X0.02962*%
%ADD50R,0.03356X0.02569*%
%ADD51R,0.03159X0.02175*%
%ADD52R,0.05128X0.04340*%
%ADD53R,0.04600X0.04400*%
%ADD54R,0.10049X0.04931*%
%ADD55O,0.03947X0.01584*%
%ADD56O,0.01584X0.03947*%
%ADD57R,0.19301X0.22844*%
%ADD58R,0.04537X0.02962*%
%ADD59R,0.02569X0.03356*%
%ADD60R,0.03100X0.03435*%
%ADD61R,0.06899X0.03750*%
%ADD62R,0.08474X0.06112*%
%ADD63R,0.04734X0.02962*%
%ADD64C,0.04757*%
%ADD65C,0.05600*%
%ADD66R,0.10443X0.05718*%
%ADD67O,0.10443X0.05718*%
%ADD68C,0.03600*%
%ADD69C,0.02569*%
%ADD70C,0.03200*%
%ADD71C,0.03100*%
D43*
X433000Y334000D02*
D03*
Y327000D02*
D03*
X433500Y276000D02*
D03*
Y269000D02*
D03*
Y304500D02*
D03*
Y297500D02*
D03*
X459500Y285000D02*
D03*
Y278000D02*
D03*
X355000Y371500D02*
D03*
Y364500D02*
D03*
X271500Y332500D02*
D03*
Y325500D02*
D03*
X376000Y329500D02*
D03*
Y322500D02*
D03*
D44*
X407000Y317500D02*
D03*
D45*
X402079Y324587D02*
D03*
X404047D02*
D03*
X406016D02*
D03*
X407984D02*
D03*
X409953D02*
D03*
X411921D02*
D03*
Y310413D02*
D03*
X409953D02*
D03*
X407984D02*
D03*
X406016D02*
D03*
X404047D02*
D03*
X402079D02*
D03*
D46*
X414087Y322421D02*
D03*
Y320453D02*
D03*
Y318484D02*
D03*
Y316516D02*
D03*
Y314547D02*
D03*
Y312579D02*
D03*
X399913D02*
D03*
Y314547D02*
D03*
Y316516D02*
D03*
Y318484D02*
D03*
Y320453D02*
D03*
Y322421D02*
D03*
D47*
X339000Y348469D02*
D03*
Y344532D02*
D03*
X365500Y285969D02*
D03*
Y282032D02*
D03*
X385000Y285969D02*
D03*
Y282032D02*
D03*
X460000Y311969D02*
D03*
Y308032D02*
D03*
D48*
X354500Y399000D02*
D03*
Y396000D02*
D03*
X323500Y316000D02*
D03*
Y313000D02*
D03*
D49*
X327937Y291000D02*
D03*
X324000D02*
D03*
X337969Y396500D02*
D03*
X334032D02*
D03*
X328437Y253500D02*
D03*
X324500D02*
D03*
X463000Y257500D02*
D03*
X459063D02*
D03*
X310969Y253500D02*
D03*
X307032D02*
D03*
X487437Y261000D02*
D03*
X483500D02*
D03*
X363969Y427000D02*
D03*
X360032D02*
D03*
X455469Y421500D02*
D03*
X451532D02*
D03*
X342969Y427000D02*
D03*
X339032D02*
D03*
X479469Y421500D02*
D03*
X475532D02*
D03*
D50*
X322000Y354925D02*
D03*
Y358075D02*
D03*
X423500Y424425D02*
D03*
Y427575D02*
D03*
D51*
X354000Y338500D02*
D03*
Y335941D02*
D03*
Y333382D02*
D03*
X358724D02*
D03*
Y335941D02*
D03*
Y338500D02*
D03*
D52*
X397520Y421669D02*
D03*
X412480D02*
D03*
X397520Y430331D02*
D03*
X412480D02*
D03*
D53*
X362000Y312500D02*
D03*
X355000D02*
D03*
X382000Y413000D02*
D03*
X375000D02*
D03*
X438000Y398000D02*
D03*
X431000D02*
D03*
X307500Y314000D02*
D03*
X300500D02*
D03*
X413500Y283500D02*
D03*
X406500D02*
D03*
X438000Y382500D02*
D03*
X431000D02*
D03*
X438500Y414000D02*
D03*
X431500D02*
D03*
D54*
X271500Y279402D02*
D03*
Y304598D02*
D03*
D55*
X376177Y386764D02*
D03*
Y384795D02*
D03*
Y382827D02*
D03*
Y380858D02*
D03*
Y378890D02*
D03*
Y376921D02*
D03*
Y374953D02*
D03*
Y372984D02*
D03*
Y371016D02*
D03*
Y369047D02*
D03*
Y367079D02*
D03*
Y365110D02*
D03*
Y363142D02*
D03*
Y361173D02*
D03*
Y359205D02*
D03*
Y357236D02*
D03*
X410823D02*
D03*
Y359205D02*
D03*
Y361173D02*
D03*
Y363142D02*
D03*
Y365110D02*
D03*
Y367079D02*
D03*
Y369047D02*
D03*
Y371016D02*
D03*
Y372984D02*
D03*
Y374953D02*
D03*
Y376921D02*
D03*
Y378890D02*
D03*
Y380858D02*
D03*
Y382827D02*
D03*
Y384795D02*
D03*
Y386764D02*
D03*
D56*
X378736Y354677D02*
D03*
X380705D02*
D03*
X382673D02*
D03*
X384642D02*
D03*
X386610D02*
D03*
X388579D02*
D03*
X390547D02*
D03*
X392516D02*
D03*
X394484D02*
D03*
X396453D02*
D03*
X398421D02*
D03*
X400390D02*
D03*
X402358D02*
D03*
X404327D02*
D03*
X406295D02*
D03*
X408264D02*
D03*
Y389323D02*
D03*
X406295D02*
D03*
X404327D02*
D03*
X402358D02*
D03*
X400390D02*
D03*
X398421D02*
D03*
X396453D02*
D03*
X394484D02*
D03*
X392516D02*
D03*
X390547D02*
D03*
X388579D02*
D03*
X386610D02*
D03*
X384642D02*
D03*
X382673D02*
D03*
X380705D02*
D03*
X378736D02*
D03*
D57*
X393500Y372000D02*
D03*
D58*
X293724Y257500D02*
D03*
X284276Y253760D02*
D03*
Y261240D02*
D03*
X503724Y328000D02*
D03*
X494276Y324260D02*
D03*
Y331740D02*
D03*
X318224Y424000D02*
D03*
X308776Y420260D02*
D03*
Y427740D02*
D03*
X503000Y425000D02*
D03*
X493551Y421260D02*
D03*
Y428740D02*
D03*
D59*
X324425Y271000D02*
D03*
X327575D02*
D03*
D60*
X357693Y253500D02*
D03*
X354307D02*
D03*
D61*
X314413Y228500D02*
D03*
X303587D02*
D03*
X525413Y295500D02*
D03*
X514587D02*
D03*
X305413Y289000D02*
D03*
X294587D02*
D03*
X525413Y382000D02*
D03*
X514587D02*
D03*
D62*
X372000Y237390D02*
D03*
Y223610D02*
D03*
D63*
X349500Y231000D02*
D03*
Y223520D02*
D03*
X338280D02*
D03*
Y227260D02*
D03*
Y231000D02*
D03*
D64*
X406000Y227000D02*
D03*
X396000D02*
D03*
D65*
X270626Y228000D02*
D03*
X278500D02*
D03*
X524500D02*
D03*
X532374D02*
D03*
X431500Y227000D02*
D03*
X439374D02*
D03*
X270626Y432500D02*
D03*
X278500D02*
D03*
X524500Y435000D02*
D03*
X532374D02*
D03*
D66*
X460000Y387000D02*
D03*
D67*
Y377000D02*
D03*
Y367000D02*
D03*
Y357000D02*
D03*
Y347000D02*
D03*
X490000Y387000D02*
D03*
Y377000D02*
D03*
Y367000D02*
D03*
Y357000D02*
D03*
Y347000D02*
D03*
D68*
X289500Y238500D02*
D03*
X362500Y282800D02*
D03*
X383865Y453665D02*
D03*
X321200Y391000D02*
D03*
X409953Y331800D02*
D03*
X432600Y339900D02*
D03*
X405200Y304000D02*
D03*
X392700Y301000D02*
D03*
X459700Y305200D02*
D03*
X395400Y310400D02*
D03*
X423200Y276000D02*
D03*
X407984Y300800D02*
D03*
X425300Y373800D02*
D03*
X440100Y300800D02*
D03*
X321200Y385800D02*
D03*
X391800Y396200D02*
D03*
X425300Y365500D02*
D03*
X271500Y345900D02*
D03*
X352900D02*
D03*
X379432Y282032D02*
D03*
X311000Y331000D02*
D03*
X369600Y393500D02*
D03*
X278600Y325500D02*
D03*
X360700Y330000D02*
D03*
X447479Y357000D02*
D03*
X400900Y283500D02*
D03*
X410700Y304000D02*
D03*
X344900Y390800D02*
D03*
X334500Y392000D02*
D03*
X398700Y332500D02*
D03*
X510000Y287000D02*
D03*
D69*
X409165Y315335D02*
D03*
X404835D02*
D03*
X409165Y319665D02*
D03*
X404835D02*
D03*
X387004Y380661D02*
D03*
X391335D02*
D03*
X395665D02*
D03*
X399996D02*
D03*
X387004Y376331D02*
D03*
X391335D02*
D03*
X395665D02*
D03*
X399996D02*
D03*
X387004Y372000D02*
D03*
X391335D02*
D03*
X395665D02*
D03*
X399996D02*
D03*
X387004Y367669D02*
D03*
X391335D02*
D03*
X395665D02*
D03*
X399996D02*
D03*
X387004Y363339D02*
D03*
X391335D02*
D03*
X395665D02*
D03*
X399996D02*
D03*
D70*
X380100Y383200D02*
D03*
D71*
X398000Y358500D02*
D03*
M02*
