G04 Layer_Physical_Order=2*
G04 Layer_Color=16711680*
%FSLAX25Y25*%
%MOIN*%
G70*
G01*
G75*
%ADD31C,0.01000*%
%ADD32C,0.04157*%
%ADD33C,0.05000*%
%ADD34R,0.09843X0.05118*%
%ADD35O,0.09843X0.05118*%
%ADD36C,0.03000*%
%ADD37C,0.01969*%
%ADD38C,0.02600*%
%ADD39C,0.02500*%
D31*
X404100Y286700D02*
Y304000D01*
X279000Y228000D02*
X289500Y238500D01*
X278500Y228000D02*
X279000D01*
X510000Y287000D02*
X532374Y264626D01*
Y228000D02*
Y264626D01*
X362500Y282800D02*
X386100Y306400D01*
X396800D01*
X398700Y308300D01*
X479200Y367000D02*
X490000D01*
X475000Y371200D02*
X479200Y367000D01*
X475000Y371200D02*
Y378600D01*
X321200Y391000D02*
X383865Y453665D01*
X409953Y331800D02*
X424500D01*
X432600Y339900D01*
X392700Y301000D02*
X395700Y304000D01*
X459700Y305200D02*
X505600Y351100D01*
Y363800D01*
X502400Y367000D02*
X505600Y363800D01*
X490000Y367000D02*
X502400D01*
X407984Y291216D02*
X423200Y276000D01*
X407984Y291216D02*
Y300800D01*
X425300Y373800D02*
X428500Y377000D01*
X460000D01*
X436900Y304000D02*
X440100Y300800D01*
X321200Y385800D02*
X331600Y396200D01*
X391800D01*
X480000Y347000D02*
X490000D01*
X475000Y352000D02*
X480000Y347000D01*
X475000Y352000D02*
Y358400D01*
X471400Y362000D02*
X475000Y358400D01*
X449900Y362000D02*
X471400D01*
X446400Y365500D02*
X449900Y362000D01*
X425300Y365500D02*
X446400D01*
X271500Y345900D02*
X352900D01*
X359800Y281600D02*
X361500Y279900D01*
X377300D01*
X379432Y282032D01*
X311000Y331000D02*
X342600D01*
X356000Y344400D01*
Y346800D01*
X339200Y363600D02*
X356000Y346800D01*
X339200Y363600D02*
Y390300D01*
X278600Y325500D02*
X356200D01*
X360700Y330000D01*
X447479Y357000D02*
X460000D01*
X400900Y283500D02*
X404100Y286700D01*
X344900Y390800D02*
X466200D01*
X470000Y387000D01*
X490000D01*
X342400Y393500D02*
X369600D01*
X395700Y304000D02*
X404100D01*
X405200D02*
X410700D01*
X404100D02*
X405200D01*
X410700D02*
X436900D01*
X334500Y392000D02*
X340900D01*
X339200Y390300D02*
X340900Y392000D01*
X342400Y393500D01*
X398700Y308300D02*
Y332500D01*
X395400Y310400D02*
X396000Y311000D01*
Y333618D01*
X470400Y383200D02*
X475000Y378600D01*
X380100Y383200D02*
X470400D01*
X359800Y281600D02*
Y323800D01*
X394500Y358500D01*
X396000Y333618D02*
X398000Y335618D01*
Y358500D01*
X394500D02*
X398000D01*
D32*
X406000Y227000D02*
D03*
X396000D02*
D03*
D33*
X270626Y228000D02*
D03*
X278500D02*
D03*
X524500D02*
D03*
X532374D02*
D03*
X431500Y227000D02*
D03*
X439374D02*
D03*
X270626Y432500D02*
D03*
X278500D02*
D03*
X524500Y435000D02*
D03*
X532374D02*
D03*
D34*
X460000Y387000D02*
D03*
D35*
Y377000D02*
D03*
Y367000D02*
D03*
Y357000D02*
D03*
Y347000D02*
D03*
X490000Y387000D02*
D03*
Y377000D02*
D03*
Y367000D02*
D03*
Y357000D02*
D03*
Y347000D02*
D03*
D36*
X289500Y238500D02*
D03*
X362500Y282800D02*
D03*
X383865Y453665D02*
D03*
X321200Y391000D02*
D03*
X409953Y331800D02*
D03*
X432600Y339900D02*
D03*
X405200Y304000D02*
D03*
X392700Y301000D02*
D03*
X459700Y305200D02*
D03*
X395400Y310400D02*
D03*
X423200Y276000D02*
D03*
X407984Y300800D02*
D03*
X425300Y373800D02*
D03*
X440100Y300800D02*
D03*
X321200Y385800D02*
D03*
X391800Y396200D02*
D03*
X425300Y365500D02*
D03*
X271500Y345900D02*
D03*
X352900D02*
D03*
X379432Y282032D02*
D03*
X311000Y331000D02*
D03*
X369600Y393500D02*
D03*
X278600Y325500D02*
D03*
X360700Y330000D02*
D03*
X447479Y357000D02*
D03*
X400900Y283500D02*
D03*
X410700Y304000D02*
D03*
X344900Y390800D02*
D03*
X334500Y392000D02*
D03*
X398700Y332500D02*
D03*
X510000Y287000D02*
D03*
D37*
X409165Y315335D02*
D03*
X404835D02*
D03*
X409165Y319665D02*
D03*
X404835D02*
D03*
X387004Y380661D02*
D03*
X391335D02*
D03*
X395665D02*
D03*
X399996D02*
D03*
X387004Y376331D02*
D03*
X391335D02*
D03*
X395665D02*
D03*
X399996D02*
D03*
X387004Y372000D02*
D03*
X391335D02*
D03*
X395665D02*
D03*
X399996D02*
D03*
X387004Y367669D02*
D03*
X391335D02*
D03*
X395665D02*
D03*
X399996D02*
D03*
X387004Y363339D02*
D03*
X391335D02*
D03*
X395665D02*
D03*
X399996D02*
D03*
D38*
X380100Y383200D02*
D03*
D39*
X398000Y358500D02*
D03*
M02*
